<svg width="64" height="64" viewBox="0 0 64 64" fill="none" xmlns="http://www.w3.org/2000/svg">
<g clip-path="url(#clip0_6551_682)">
<path d="M64.0005 8.9299V41.7799H0.000488281V8.9299C0.000488281 6.5699 1.92049 4.6499 4.29049 4.6499H59.7105C60.9605 4.6499 62.0805 5.1799 62.8605 6.0399C63.5705 6.7999 64.0005 7.8099 64.0005 8.9299Z" fill="#788D9A"/>
<path d="M64.0005 41.7898V46.4598C64.0005 48.8198 62.0805 50.7398 59.7105 50.7398H4.29049C3.41049 50.7398 2.58049 50.4698 1.89049 50.0098C0.750488 49.2398 0.000488281 47.9298 0.000488281 46.4498V41.7798H64.0005V41.7898Z" fill="#DADDE1"/>
<path d="M60.3105 8.20996H3.69049V38.22H60.3105V8.20996Z" fill="#F2F2F2"/>
<path d="M38.7105 56.2602H25.2905L26.3005 50.7402H37.7005L38.7105 56.2602Z" fill="#B3B3B3"/>
<path d="M45.1005 57.6898V57.9098C45.1005 58.6998 44.4705 59.3398 43.6805 59.3398H20.3305C19.5405 59.3398 18.9005 58.6998 18.9005 57.9098V57.6898C18.9005 56.8998 19.5405 56.2598 20.3305 56.2598H43.6805C44.4705 56.2598 45.1005 56.8998 45.1005 57.6898Z" fill="#DADDE1"/>
<path d="M34.2405 46.26C34.2405 47.5 33.2405 48.5 32.0005 48.5C30.7605 48.5 29.7605 47.5 29.7605 46.26C29.7605 45.02 30.7605 44.02 32.0005 44.02C33.2405 44.02 34.2405 45.02 34.2405 46.26Z" fill="#788D9A"/>
<path d="M26.7905 26.1698C26.7605 26.0798 26.7205 26.0098 26.6605 25.9598C26.6005 25.9198 26.5205 25.8798 26.4305 25.8298L21.1005 23.3598L26.5305 20.8198C26.6005 20.7798 26.6605 20.7398 26.7105 20.7098C26.7505 20.6698 26.7905 20.6098 26.8105 20.5198C26.8405 20.4298 26.8505 20.3098 26.8605 20.1598C26.8705 20.0098 26.8805 19.8098 26.8805 19.5498C26.8805 19.1698 26.8405 18.9198 26.7605 18.7998C26.6905 18.6798 26.5605 18.6598 26.3805 18.7498L19.1605 22.3298C19.1205 22.3498 19.0805 22.3898 19.0505 22.4398C19.0105 22.4798 18.9805 22.5498 18.9605 22.6198C18.9505 22.6998 18.9305 22.7998 18.9205 22.9198C18.9105 23.0498 18.9005 23.1898 18.9005 23.3498C18.9005 23.6698 18.9205 23.9198 18.9605 24.0698C19.0005 24.2398 19.0705 24.3398 19.1505 24.3898L26.3805 27.9898C26.4705 28.0298 26.5505 28.0598 26.6105 28.0598C26.6705 28.0698 26.7205 28.0498 26.7605 27.9898C26.8005 27.9298 26.8305 27.8398 26.8505 27.7098C26.8705 27.5698 26.8805 27.3898 26.8805 27.1598C26.8805 26.8998 26.8705 26.6898 26.8605 26.5298C26.8505 26.3698 26.8205 26.2498 26.7905 26.1698ZM35.8905 15.1298C35.8805 15.0498 35.8305 14.9798 35.7505 14.9298C35.6705 14.8798 35.5505 14.8398 35.3905 14.8198C35.2305 14.7898 35.0205 14.7798 34.7505 14.7798C34.5505 14.7798 34.3805 14.7898 34.2405 14.8098C34.1005 14.8198 33.9805 14.8398 33.9005 14.8798C33.8105 14.9098 33.7405 14.9498 33.6905 14.9998C33.6405 15.0598 33.6005 15.1198 33.5705 15.2098L27.9405 31.0198C27.9105 31.0998 27.9005 31.1798 27.9005 31.2398V31.2998C27.9205 31.3798 27.9605 31.4398 28.0505 31.4898C28.1305 31.5398 28.2605 31.5798 28.4205 31.6098C28.5905 31.6298 28.8005 31.6398 29.0505 31.6398C29.2605 31.6398 29.4305 31.6298 29.5705 31.6198C29.7005 31.5998 29.8105 31.5798 29.9105 31.5498C30.0005 31.5198 30.0705 31.4798 30.1205 31.4298C30.1705 31.3798 30.2105 31.3098 30.2405 31.2298L31.0405 28.9798L35.8605 15.3998C35.9005 15.2998 35.9005 15.1998 35.8905 15.1298ZM45.0305 22.6498C44.9905 22.4798 44.9205 22.3798 44.8405 22.3498L42.1205 20.9898L37.6105 18.7398C37.5205 18.6898 37.4405 18.6698 37.3805 18.6598C37.3205 18.6598 37.2705 18.6798 37.2305 18.7398C37.1805 18.7898 37.1605 18.8898 37.1405 19.0198C37.1205 19.1498 37.1205 19.3298 37.1205 19.5698C37.1205 19.8298 37.1205 20.0398 37.1305 20.1898C37.1405 20.3498 37.1605 20.4698 37.1905 20.5598C37.2205 20.6498 37.2705 20.7198 37.3305 20.7598C37.3905 20.8098 37.4705 20.8498 37.5705 20.8898L40.4205 22.2198L42.8905 23.3598L37.4705 25.9098C37.3905 25.9398 37.3305 25.9698 37.2905 26.0198C37.2405 26.0598 37.2105 26.1198 37.1805 26.2098C37.1605 26.2998 37.1405 26.4098 37.1305 26.5698C37.1205 26.7198 37.1205 26.9198 37.1205 27.1798C37.1205 27.3698 37.1205 27.5198 37.1405 27.6398C37.1605 27.7698 37.1805 27.8598 37.2305 27.9198C37.2705 27.9798 37.3205 28.0198 37.3805 28.0298C37.4405 28.0298 37.5205 28.0098 37.6105 27.9698L44.8305 24.3898C44.8805 24.3698 44.9105 24.3398 44.9505 24.2898C44.9805 24.2398 45.0105 24.1798 45.0305 24.0998C45.0605 24.0198 45.0705 23.9198 45.0905 23.7998C45.1005 23.6798 45.1005 23.5398 45.1005 23.3698C45.1005 23.0498 45.0805 22.8098 45.0305 22.6498Z" fill="#76BFE9"/>
<path opacity="0.1" d="M64.0005 8.93004V46.45C64.0005 48.81 62.0805 50.73 59.7105 50.73H37.7005L38.7105 56.26H43.6805C44.4705 56.26 45.1005 56.9 45.1005 57.69V57.91C45.1005 58.7 44.4705 59.34 43.6805 59.34H20.3305C19.5405 59.34 18.9005 58.7 18.9005 57.91V57.69C18.9005 56.9 19.5405 56.26 20.3305 56.26H25.2905L26.3005 50.73H4.2905C3.4105 50.73 2.5805 50.46 1.8905 50L13.2905 41.78L18.2305 38.22L27.9005 31.25V31.24L31.0405 28.98L40.4205 22.22L42.1205 20.99L59.8505 8.21004L62.8605 6.04004C63.5705 6.80004 64.0005 7.81004 64.0005 8.93004Z" fill="#1D1D1D"/>
</g>
<defs>
<clipPath id="clip0_6551_682">
<rect width="64" height="64" fill="white" transform="translate(0.000488281)"/>
</clipPath>
</defs>
</svg>
