<svg width="229" height="229" viewBox="0 0 229 229" fill="none" xmlns="http://www.w3.org/2000/svg">
<path d="M44.7741 192.332C83.2827 212.452 145.717 212.452 184.226 192.332C222.735 172.213 222.739 139.598 184.226 119.478C145.713 99.3584 83.2827 99.363 44.7695 119.478C6.25629 139.594 6.26087 172.208 44.7741 192.332Z" fill="#F5F5F5"/>
<path d="M93.432 174.86C103.81 179.806 120.633 179.806 130.988 174.86C141.343 169.913 141.366 161.898 130.988 156.952C120.61 152.006 103.792 152.006 93.432 156.952C83.072 161.898 83.0354 169.918 93.432 174.86Z" fill="#EBEBEB"/>
<path d="M183.273 162.617L146.175 184.029C145.868 184.185 145.528 184.266 145.184 184.266C144.839 184.266 144.499 184.185 144.192 184.029L97.8196 157.245C97.7 157.204 97.5961 157.127 97.5225 157.025C97.4489 156.922 97.4093 156.799 97.4093 156.673C97.4093 156.546 97.4489 156.423 97.5225 156.32C97.5961 156.218 97.7 156.141 97.8196 156.1L134.918 134.689C135.225 134.533 135.565 134.452 135.909 134.452C136.254 134.452 136.593 134.533 136.901 134.689L183.287 161.472C183.406 161.514 183.509 161.593 183.582 161.696C183.654 161.8 183.692 161.923 183.69 162.05C183.689 162.176 183.648 162.299 183.573 162.401C183.498 162.502 183.393 162.578 183.273 162.617Z" fill="#EBEBEB"/>
<path d="M51.9738 129.193C50.6502 128.858 43.5833 124.837 42.8642 124.347C42.1452 123.857 40.7254 122.845 40.7254 121.1C40.7254 119.556 40.8857 105.001 42.1497 97.9707C42.565 95.7837 43.4232 93.7048 44.6716 91.8618C45.92 90.0187 47.5322 88.4505 49.409 87.2535C53.8058 84.5284 58.2255 82.5544 61.9491 84.1025C65.6726 85.6505 69.071 88.4947 70.5366 91.9297C72.0022 95.3647 73.0052 102.244 73.1105 104.905C73.2159 107.566 73.1105 116.689 73.1105 117.5C73.1105 118.31 72.964 119.364 68.5992 122.08C64.2345 124.796 58.2072 128.034 56.3432 128.872C54.9567 129.436 53.4278 129.548 51.9738 129.193Z" fill="#37474F"/>
<path d="M50.8838 89.1452C50.4808 89.3742 49.3174 88.8017 49.1434 88.5132C48.9694 88.2246 48.9236 85.7286 49.7938 84.35C50.664 82.9714 56.0913 80.4295 57.4332 80.6173C57.9358 80.6991 58.4164 80.8827 58.8456 81.1567C59.2748 81.4308 59.6436 81.7896 59.9293 82.2111C60.0942 82.5638 60.2774 84.8858 59.9293 85.3622C59.5812 85.8385 58.34 85.1057 58.2301 84.9042C58.1202 84.7026 58.6377 83.0035 57.7721 82.6508C56.9752 82.3302 53.1921 83.9378 51.6532 85.2293C50.9846 85.7927 51.0166 87.1896 51.0487 87.8812C51.0807 88.5727 51.0853 89.0262 50.8838 89.1452Z" fill="#455A64"/>
<path d="M49.7938 105.532C50.5724 97.9707 51.9738 93.5556 59.3705 90.2625C66.7672 86.9695 69.6389 89.7725 70.6877 92.2961C72.0617 95.8318 73.0098 102.335 73.1105 104.905C73.2159 107.566 73.1105 116.689 73.1105 117.5C73.1105 118.31 72.964 119.364 68.5992 122.08C64.2345 124.796 58.2072 128.034 56.3432 128.872C54.9581 129.44 53.4292 129.557 51.9738 129.206C51.6815 129.117 51.3967 129.006 51.122 128.872C48.8182 125.913 49.0793 112.439 49.7938 105.532Z" fill="#455A64"/>
<path d="M67.0375 87.3089C65.1047 86.1776 61.9353 85.4311 57.2821 87.5058C48.9648 91.2111 46.8534 95.8506 46.0153 103.994C45.8641 105.487 45.6397 107.264 45.5573 109.174L44.8703 108.757C44.9664 106.696 45.168 104.933 45.3283 103.339C46.2443 95.1361 48.7037 90.6019 56.65 87.0616C61.0514 85.1013 63.9414 85.3578 65.8558 86.3242C66.2669 86.6312 66.6614 86.9599 67.0375 87.3089Z" fill="#263238"/>
<path d="M67.326 87.5191C65.3978 86.3878 62.2239 85.6413 57.5752 87.716C49.2533 91.4213 47.1419 96.0608 46.3038 104.204C46.1527 105.697 45.9282 107.474 45.8458 109.384L45.1588 108.967C45.255 106.906 45.4565 105.143 45.6168 103.549C46.5328 95.3463 48.9923 90.8075 56.9386 87.2718C61.3399 85.3115 64.3078 85.6367 66.2222 86.5985C66.6071 86.8844 66.9757 87.1917 67.326 87.5191Z" fill="#455A64"/>
<path d="M64.633 94.7099L62.1185 93.2718C61.9945 93.2022 61.8479 93.1843 61.7107 93.222C61.5735 93.2597 61.4568 93.35 61.3857 93.4733L58.8072 97.9571C58.7354 98.0805 58.7153 98.2273 58.7513 98.3655C58.7873 98.5037 58.8766 98.6219 58.9996 98.6945L61.4819 100.142C61.6053 100.214 61.7521 100.234 61.8903 100.198C62.0284 100.162 62.1467 100.072 62.2193 99.9494L64.8299 95.4381C64.8657 95.3776 64.889 95.3106 64.8985 95.2409C64.9079 95.1712 64.9034 95.1004 64.885 95.0325C64.8666 94.9646 64.8349 94.9011 64.7916 94.8457C64.7483 94.7903 64.6944 94.7441 64.633 94.7099Z" fill="#263238"/>
<path d="M61.9353 99.6286L64.4131 95.3555C64.431 95.3249 64.4425 95.2911 64.4471 95.256C64.4517 95.2209 64.4493 95.1852 64.4399 95.1511C64.4305 95.117 64.4144 95.085 64.3925 95.0572C64.3706 95.0294 64.3433 95.0062 64.3124 94.9891L62.0224 93.6884C61.9603 93.6536 61.887 93.6446 61.8185 93.6635C61.7499 93.6823 61.6915 93.7275 61.656 93.7891L59.2057 98.044C59.1708 98.106 59.1619 98.1793 59.1808 98.2479C59.1996 98.3165 59.2448 98.3748 59.3064 98.4104L61.5552 99.7248C61.5862 99.7444 61.6209 99.7575 61.6571 99.7633C61.6933 99.7691 61.7304 99.7674 61.7659 99.7584C61.8015 99.7494 61.8349 99.7333 61.864 99.711C61.8931 99.6887 61.9174 99.6606 61.9353 99.6286Z" fill="#455A64"/>
<path d="M62.4666 97.5864C62.5326 97.5465 62.5885 97.4918 62.6298 97.4266C62.6711 97.3614 62.6968 97.2876 62.7048 97.2108V95.1636C62.7048 95.0308 62.5994 94.9895 62.4666 95.0628C62.4006 95.1028 62.3447 95.1575 62.3034 95.2226C62.2621 95.2878 62.2364 95.3616 62.2285 95.4384V97.4856C62.2285 97.6185 62.3338 97.6597 62.4666 97.5864Z" fill="#37474F"/>
<path d="M61.1384 98.3555C61.2043 98.3143 61.26 98.2587 61.3012 98.1929C61.3425 98.127 61.3683 98.0526 61.3766 97.9754V95.9327C61.3766 95.7999 61.2667 95.7541 61.1384 95.8319C61.0719 95.8713 61.0157 95.9259 60.9743 95.9911C60.9329 96.0564 60.9075 96.1306 60.9003 96.2075V98.2548C60.914 98.383 61.0056 98.4288 61.1384 98.3555Z" fill="#37474F"/>
<path d="M53.2196 111.926C53.2196 111.926 54.4654 112.952 55.363 116.818C56.2607 120.683 56.8012 125.552 55.821 126.138C54.8409 126.724 53.4257 125.497 53.073 125.075C52.3494 124.21 52.528 115.022 53.2196 111.926Z" fill="#263238"/>
<path d="M53.2196 111.926C53.2196 111.926 54.4653 112.952 55.363 116.818C56.2607 120.683 56.8012 125.552 55.821 126.138L70.935 117.225C71.9243 116.639 72.1671 111.523 71.274 107.658C70.6831 105.116 69.5977 103.907 68.929 103.375C68.7756 103.257 68.5902 103.187 68.3968 103.175C68.2033 103.163 68.0107 103.208 67.8435 103.307L53.2196 111.926Z" fill="#37474F"/>
<path d="M68.6176 103.966C69.3412 104.324 70.5686 105.308 71.1228 107.923C71.2163 108.279 71.2079 108.655 71.0985 109.006C70.9892 109.357 70.7834 109.671 70.5045 109.911C70.0007 110.268 59.1828 116.419 57.7492 117.276C56.5126 118.013 55.8714 117.033 55.6012 116.419C55.1432 115.329 54.7493 114.482 54.4104 113.832C54.1516 113.122 53.7476 112.475 53.2242 111.931L67.6374 104.008C67.7849 103.921 67.9515 103.872 68.1224 103.865C68.2933 103.858 68.4633 103.892 68.6176 103.966Z" fill="#263238"/>
<path d="M46.0244 109.81C46.2337 110.597 46.3702 111.402 46.432 112.215C46.432 112.379 46.2076 112.467 46.1435 112.467C45.6197 112.361 45.1349 112.114 44.742 111.752C44.8154 111.06 44.941 110.374 45.1176 109.7L46.0244 109.81Z" fill="#263238"/>
<path d="M46.4916 109.164C46.4916 108.991 46.4403 108.822 46.3441 108.678C46.248 108.534 46.1114 108.422 45.9515 108.356C45.7917 108.29 45.6158 108.273 45.4461 108.306C45.2764 108.34 45.1206 108.423 44.9982 108.546C44.8759 108.668 44.7926 108.824 44.7588 108.994C44.7251 109.163 44.7424 109.339 44.8086 109.499C44.8748 109.659 44.9869 109.796 45.1308 109.892C45.2746 109.988 45.4438 110.039 45.6168 110.039C45.8488 110.039 46.0713 109.947 46.2353 109.783C46.3994 109.619 46.4916 109.396 46.4916 109.164Z" fill="#263238"/>
<path d="M57.4332 82.6097C58.3904 82.5181 59.2927 82.6097 59.5217 83.567C59.7507 84.5242 59.6682 85.399 59.5217 85.518C59.0367 85.4566 58.5841 85.2415 58.2301 84.9043C58.1202 84.6982 58.6377 83.0036 57.7721 82.651C57.666 82.6157 57.5539 82.6017 57.4424 82.6097H57.4332Z" fill="#263238"/>
<path d="M67.9351 103.256C68.0832 103.169 68.2505 103.119 68.4223 103.112C68.5941 103.105 68.765 103.14 68.9198 103.215C69.6435 103.572 70.8709 104.557 71.4251 107.172C71.518 107.528 71.5093 107.903 71.4 108.254C71.2907 108.606 71.0852 108.919 70.8068 109.16C70.303 109.517 59.4896 115.668 58.0561 116.525C56.8195 117.262 56.1737 116.282 55.9035 115.668C54.4058 112.535 53.2196 111.926 53.2196 111.926L67.9351 103.256Z" fill="#37474F"/>
<path d="M65.3429 156.54L53.215 149.542C52.8983 149.334 52.6347 149.056 52.4454 148.728C52.2561 148.4 52.1463 148.033 52.125 147.655V147.792C52.1456 147.414 52.2551 147.046 52.4445 146.718C52.6338 146.39 52.8978 146.112 53.215 145.905L77.6035 131.826C77.9404 131.654 78.3132 131.565 78.6913 131.565C79.0694 131.565 79.4422 131.654 79.779 131.826L91.9069 138.829C92.2245 139.034 92.4889 139.312 92.6784 139.639C92.8679 139.966 92.977 140.334 92.9969 140.711V140.574C92.9768 140.952 92.8681 141.319 92.6795 141.647C92.4909 141.975 92.2278 142.254 91.9115 142.461L67.5229 156.54C67.1853 156.712 66.8118 156.801 66.4329 156.801C66.0541 156.801 65.6806 156.712 65.3429 156.54Z" fill="#FFC44A"/>
<path opacity="0.7" d="M65.3429 156.54L53.215 149.542C52.8983 149.334 52.6347 149.056 52.4454 148.728C52.2561 148.4 52.1463 148.033 52.125 147.655V147.792C52.1456 147.414 52.2551 147.046 52.4445 146.718C52.6338 146.39 52.8978 146.112 53.215 145.905L77.6035 131.826C77.9404 131.654 78.3132 131.565 78.6913 131.565C79.0694 131.565 79.4422 131.654 79.779 131.826L91.9069 138.829C92.2245 139.034 92.4889 139.312 92.6784 139.639C92.8679 139.966 92.977 140.334 92.9969 140.711V140.574C92.9768 140.952 92.8681 141.319 92.6795 141.647C92.4909 141.975 92.2278 142.254 91.9115 142.461L67.5229 156.54C67.1853 156.712 66.8118 156.801 66.4329 156.801C66.0541 156.801 65.6806 156.712 65.3429 156.54Z" fill="#1D1D1D"/>
<path d="M66.41 138.275L53.1967 145.905C52.8795 146.112 52.6155 146.391 52.4261 146.718C52.2367 147.046 52.1273 147.414 52.1067 147.792V147.655C52.128 148.033 52.2378 148.4 52.4271 148.728C52.6164 149.056 52.88 149.334 53.1967 149.542L65.3245 156.54C65.6597 156.718 66.0349 156.808 66.4146 156.801L66.41 138.275Z" fill="#FFC44A"/>
<path opacity="0.7" d="M66.41 138.275L53.1967 145.905C52.8795 146.112 52.6155 146.391 52.4261 146.718C52.2367 147.046 52.1273 147.414 52.1067 147.792V147.655C52.128 148.033 52.2378 148.4 52.4271 148.728C52.6164 149.056 52.88 149.334 53.1967 149.542L65.3245 156.54C65.6597 156.718 66.0349 156.808 66.4146 156.801L66.41 138.275Z" fill="#1D1D1D"/>
<path d="M53.2105 147.165L65.3337 154.167C65.6721 154.337 66.0453 154.425 66.4238 154.425C66.8022 154.425 67.1754 154.337 67.5138 154.167L91.9023 140.084C92.5069 139.736 92.5069 139.168 91.9023 138.829L79.7745 131.826C79.4376 131.654 79.0648 131.565 78.6867 131.565C78.3086 131.565 77.9358 131.654 77.599 131.826L53.2105 145.905C52.6059 146.253 52.6059 146.817 53.2105 147.165Z" fill="#FFC44A"/>
<path opacity="0.5" d="M53.2105 147.165L65.3337 154.167C65.6721 154.337 66.0453 154.425 66.4238 154.425C66.8022 154.425 67.1754 154.337 67.5138 154.167L91.9023 140.084C92.5069 139.736 92.5069 139.168 91.9023 138.829L79.7745 131.826C79.4376 131.654 79.0648 131.565 78.6867 131.565C78.3086 131.565 77.9358 131.654 77.599 131.826L53.2105 145.905C52.6059 146.253 52.6059 146.817 53.2105 147.165Z" fill="#1D1D1D"/>
<path d="M53.2104 144.86V146.024L65.7963 153.292C65.9879 153.402 66.205 153.46 66.426 153.46C66.647 153.46 66.8642 153.402 67.0558 153.292L91.9023 138.943V137.743L66.4237 150.109L53.2104 144.86Z" fill="#FFC44A"/>
<path d="M65.3383 151.864L53.2104 144.861C52.8927 144.655 52.6284 144.376 52.4389 144.048C52.2495 143.72 52.1403 143.352 52.1204 142.974V140.734C52.1403 140.356 52.2495 139.988 52.4389 139.66C52.6284 139.332 52.8927 139.053 53.2104 138.847L77.599 124.764C77.9358 124.592 78.3086 124.502 78.6867 124.502C79.0648 124.502 79.4376 124.592 79.7745 124.764L91.9023 131.766C92.22 131.973 92.4844 132.251 92.6738 132.579C92.8633 132.907 92.9724 133.275 92.9923 133.653V135.898C92.9694 136.268 92.8586 136.627 92.669 136.946C92.4794 137.264 92.2166 137.533 91.9023 137.73L67.5138 151.85C67.178 152.024 66.8058 152.116 66.4277 152.118C66.0496 152.12 65.6763 152.033 65.3383 151.864Z" fill="#FFC44A"/>
<path opacity="0.6" d="M65.3383 151.864L53.2104 144.861C52.8927 144.655 52.6284 144.376 52.4389 144.048C52.2495 143.72 52.1403 143.352 52.1204 142.974V140.734C52.1403 140.356 52.2495 139.988 52.4389 139.66C52.6284 139.332 52.8927 139.053 53.2104 138.847L77.599 124.764C77.9358 124.592 78.3086 124.502 78.6867 124.502C79.0648 124.502 79.4376 124.592 79.7745 124.764L91.9023 131.766C92.22 131.973 92.4844 132.251 92.6738 132.579C92.8633 132.907 92.9724 133.275 92.9923 133.653V135.898C92.9694 136.268 92.8586 136.627 92.669 136.946C92.4794 137.264 92.2166 137.533 91.9023 137.73L67.5138 151.85C67.178 152.024 66.8058 152.116 66.4277 152.118C66.0496 152.12 65.6763 152.033 65.3383 151.864Z" fill="#1D1D1D"/>
<path d="M66.41 131.217L53.1967 138.847C52.879 139.053 52.6146 139.332 52.4252 139.66C52.2357 139.988 52.1266 140.356 52.1067 140.734V142.974C52.1266 143.352 52.2357 143.72 52.4252 144.048C52.6146 144.376 52.879 144.654 53.1967 144.861L65.3245 151.863C65.6579 152.042 66.0317 152.132 66.41 152.124V131.217Z" fill="#FFC44A"/>
<path opacity="0.7" d="M66.41 131.217L53.1967 138.847C52.879 139.053 52.6146 139.332 52.4252 139.66C52.2357 139.988 52.1266 140.356 52.1067 140.734V142.974C52.1266 143.352 52.2357 143.72 52.4252 144.048C52.6146 144.376 52.879 144.654 53.1967 144.861L65.3245 151.863C65.6579 152.042 66.0317 152.132 66.41 152.124V131.217Z" fill="#1D1D1D"/>
<path d="M53.2105 140.102L65.3337 147.105C65.6714 147.277 66.0449 147.366 66.4238 147.366C66.8026 147.366 67.1761 147.277 67.5138 147.105L91.9023 133.026C92.5069 132.678 92.5069 132.11 91.9023 131.766L79.7745 124.764C79.4376 124.592 79.0648 124.502 78.6867 124.502C78.3086 124.502 77.9358 124.592 77.599 124.764L53.2105 138.847C52.6059 139.195 52.6059 139.759 53.2105 140.102Z" fill="#FFC44A"/>
<path opacity="0.5" d="M53.2105 140.102L65.3337 147.105C65.6714 147.277 66.0449 147.366 66.4238 147.366C66.8026 147.366 67.1761 147.277 67.5138 147.105L91.9023 133.026C92.5069 132.678 92.5069 132.11 91.9023 131.766L79.7745 124.764C79.4376 124.592 79.0648 124.502 78.6867 124.502C78.3086 124.502 77.9358 124.592 77.599 124.764L53.2105 138.847C52.6059 139.195 52.6059 139.759 53.2105 140.102Z" fill="#1D1D1D"/>
<path d="M70.1244 134.537C68.7825 135.316 68.7825 136.566 70.1244 137.336C70.8789 137.715 71.7118 137.913 72.5564 137.913C73.4009 137.913 74.2338 137.715 74.9883 137.336C76.3303 136.566 76.3303 135.316 74.9883 134.537C74.2344 134.156 73.4013 133.957 72.5564 133.957C71.7114 133.957 70.8783 134.156 70.1244 134.537Z" fill="#FFC44A"/>
<path d="M89.9283 135.357C89.8039 135.438 89.7004 135.548 89.6264 135.677C89.5524 135.806 89.5099 135.951 89.5024 136.099C89.5024 136.374 89.6947 136.488 89.9283 136.356C90.0528 136.274 90.1562 136.165 90.2302 136.036C90.3042 135.907 90.3467 135.762 90.3543 135.614C90.3543 135.339 90.1619 135.224 89.9283 135.357Z" fill="#FFC44A"/>
<path d="M89.9283 137.002C89.8039 137.083 89.7004 137.193 89.6264 137.322C89.5524 137.45 89.5099 137.595 89.5024 137.744C89.5024 138.018 89.6947 138.133 89.9283 138C90.0543 137.92 90.159 137.811 90.2332 137.682C90.3075 137.553 90.349 137.407 90.3543 137.258C90.3543 136.983 90.1619 136.869 89.9283 137.002Z" fill="#FFC44A"/>
<path d="M60.2591 165.796C60.203 165.796 60.1479 165.782 60.0988 165.755L48.3465 158.926C48.0422 158.75 47.7896 158.497 47.614 158.192C47.4384 157.887 47.346 157.542 47.346 157.19C47.346 156.839 47.4384 156.493 47.614 156.188C47.7896 155.884 48.0422 155.631 48.3465 155.454L56.9615 150.481C57.0346 150.443 57.1191 150.436 57.1977 150.459C57.2763 150.482 57.343 150.535 57.384 150.606C57.4251 150.677 57.4374 150.761 57.4184 150.841C57.3995 150.92 57.3507 150.99 57.2821 151.035L48.6717 155.995C48.4666 156.116 48.2968 156.289 48.1788 156.497C48.0608 156.704 47.9988 156.938 47.9988 157.176C47.9988 157.415 48.0608 157.649 48.1788 157.856C48.2968 158.064 48.4666 158.236 48.6717 158.358L60.4239 165.178C60.4634 165.198 60.4981 165.227 60.5257 165.262C60.5533 165.297 60.5731 165.338 60.5839 165.381C60.5948 165.424 60.5963 165.469 60.5884 165.513C60.5806 165.557 60.5636 165.599 60.5384 165.636C60.5109 165.685 60.4703 165.727 60.4211 165.755C60.3718 165.783 60.3158 165.797 60.2591 165.796Z" fill="#FFC44A"/>
<path d="M74.9792 159.201L72.4327 148.978C72.3964 148.837 72.3489 148.699 72.2907 148.566L73.0327 148.461L71.4159 147.545C71.0767 147.36 70.6937 147.272 70.308 147.289C69.9223 147.306 69.5485 147.427 69.2267 147.641L58.624 153.778C57.8961 154.255 57.2907 154.896 56.857 155.65C56.4234 156.405 56.1736 157.251 56.1279 158.12V170.412C56.1279 171.393 56.3661 172.066 56.8561 172.299L58.3767 173.179L58.0103 172.208L58.0927 172.176C59.8377 171.342 60.4698 169.822 60.9919 168.315L63.0117 162.475C63.5338 160.969 64.8436 159.242 65.9154 158.614C66.9871 157.987 68.5168 158.614 69.3046 159.988L70.3213 161.765C70.6317 162.329 71.0996 162.791 71.6678 163.094L73.2159 164.01L72.822 163.396C73.1439 163.397 73.4602 163.311 73.738 163.149C74.796 162.517 75.3639 160.758 74.9792 159.201Z" fill="#FFC44A"/>
<path opacity="0.7" d="M74.9792 159.201L72.4327 148.978C72.3964 148.837 72.3489 148.699 72.2907 148.566L73.0327 148.461L71.4159 147.545C71.0767 147.36 70.6937 147.272 70.308 147.289C69.9223 147.306 69.5485 147.427 69.2267 147.641L58.624 153.778C57.8961 154.255 57.2907 154.896 56.857 155.65C56.4234 156.405 56.1736 157.251 56.1279 158.12V170.412C56.1279 171.393 56.3661 172.066 56.8561 172.299L58.3767 173.179L58.0103 172.208L58.0927 172.176C59.8377 171.342 60.4698 169.822 60.9919 168.315L63.0117 162.475C63.5338 160.969 64.8436 159.242 65.9154 158.614C66.9871 157.987 68.5168 158.614 69.3046 159.988L70.3213 161.765C70.6317 162.329 71.0996 162.791 71.6678 163.094L73.2159 164.01L72.822 163.396C73.1439 163.397 73.4602 163.311 73.738 163.149C74.796 162.517 75.3639 160.758 74.9792 159.201Z" fill="#1D1D1D"/>
<path d="M72.2907 148.566L73.0327 148.461L71.4159 147.545C71.0767 147.36 70.6937 147.272 70.308 147.289C69.9223 147.306 69.5485 147.427 69.2267 147.641L58.624 153.778C58.0318 154.147 57.5257 154.639 57.1401 155.221L59.6637 156.759L72.5701 149.468L72.4464 148.978C72.4057 148.837 72.3536 148.699 72.2907 148.566Z" fill="#FFC44A"/>
<path opacity="0.5" d="M72.2907 148.566L73.0327 148.461L71.4159 147.545C71.0767 147.36 70.6937 147.272 70.308 147.289C69.9223 147.306 69.5485 147.427 69.2267 147.641L58.624 153.778C58.0318 154.147 57.5257 154.639 57.1401 155.221L59.6637 156.759L72.5701 149.468L72.4464 148.978C72.4057 148.837 72.3536 148.699 72.2907 148.566Z" fill="#1D1D1D"/>
<path d="M75.3547 164.101C74.2693 164.729 72.7442 164.101 71.9518 162.727L70.9396 160.95C70.1473 159.576 68.6496 158.949 67.5458 159.576C66.4421 160.204 65.1642 161.926 64.6421 163.437L62.6269 169.272C62.1048 170.779 61.4682 172.299 59.7232 173.133C58.4042 173.765 57.7675 172.968 57.7675 171.374V159.072C57.8148 158.204 58.0658 157.359 58.5002 156.605C58.9346 155.852 59.5403 155.211 60.2682 154.735L70.8892 148.575C71.1753 148.374 71.5079 148.25 71.8553 148.215C72.2028 148.179 72.5536 148.232 72.8747 148.37C73.1958 148.507 73.4764 148.724 73.69 149.001C73.9036 149.277 74.0431 149.604 74.0952 149.949L76.6417 160.176C77.0173 161.706 76.4448 163.474 75.3547 164.101Z" fill="#FFC44A"/>
<path opacity="0.6" d="M75.3547 164.101C74.2693 164.729 72.7442 164.101 71.9518 162.727L70.9396 160.95C70.1473 159.576 68.6496 158.949 67.5458 159.576C66.4421 160.204 65.1642 161.926 64.6421 163.437L62.6269 169.272C62.1048 170.779 61.4682 172.299 59.7232 173.133C58.4042 173.765 57.7675 172.968 57.7675 171.374V159.072C57.8148 158.204 58.0658 157.359 58.5002 156.605C58.9346 155.852 59.5403 155.211 60.2682 154.735L70.8892 148.575C71.1753 148.374 71.5079 148.25 71.8553 148.215C72.2028 148.179 72.5536 148.232 72.8747 148.37C73.1958 148.507 73.4764 148.724 73.69 149.001C73.9036 149.277 74.0431 149.604 74.0952 149.949L76.6417 160.176C77.0173 161.706 76.4448 163.474 75.3547 164.101Z" fill="#1D1D1D"/>
<path d="M71.2373 152.115L71.503 153.622L72.68 152.871L72.9411 154.378L71.7686 155.133L72.0342 156.64L70.8618 157.391L70.5961 155.885L69.4236 156.64L69.158 155.129L70.3305 154.378L70.0648 152.871L71.2373 152.115Z" fill="#263238"/>
<path d="M71.5762 152.294L71.8419 153.801L73.0144 153.05L73.28 154.556L72.1075 155.312L72.3732 156.819L71.2007 157.57L70.9351 156.063L69.7626 156.814L69.4969 155.308L70.6694 154.556L70.4038 153.05L71.5762 152.294Z" fill="#FFC44A"/>
<path d="M62.3521 157.451C62.3835 157.663 62.3575 157.88 62.277 158.079C62.1965 158.278 62.0643 158.452 61.8941 158.582C61.5689 158.789 61.2483 158.619 61.1751 158.202C61.1422 157.99 61.1675 157.773 61.2481 157.574C61.3287 157.374 61.4618 157.201 61.6331 157.071C61.9537 156.865 62.288 157.034 62.3521 157.451Z" fill="#263238"/>
<path d="M62.8834 160.465C62.9162 160.677 62.891 160.894 62.8103 161.093C62.7297 161.293 62.5967 161.466 62.4254 161.596C62.1002 161.802 61.7796 161.633 61.7063 161.22C61.673 161.008 61.698 160.791 61.7787 160.591C61.8594 160.392 61.9927 160.219 62.1643 160.089C62.4849 159.878 62.8101 160.048 62.8834 160.465Z" fill="#263238"/>
<path d="M63.7902 158.202C63.8236 158.415 63.7986 158.632 63.7179 158.831C63.6372 159.031 63.5039 159.204 63.3322 159.334C63.0071 159.544 62.6865 159.375 62.6132 158.958C62.5799 158.746 62.6049 158.528 62.6855 158.329C62.7662 158.13 62.8995 157.956 63.0712 157.827C63.3964 157.621 63.717 157.786 63.7902 158.202Z" fill="#263238"/>
<path d="M61.4453 159.709C61.4786 159.922 61.4536 160.139 61.3729 160.338C61.2923 160.538 61.159 160.711 60.9873 160.841C60.6621 161.051 60.3415 160.882 60.2682 160.465C60.2354 160.253 60.2607 160.035 60.3413 159.836C60.4219 159.637 60.5549 159.463 60.7262 159.334C61.0514 159.128 61.372 159.293 61.4453 159.709Z" fill="#263238"/>
<path d="M62.375 157.465C62.4078 157.677 62.3826 157.894 62.302 158.093C62.2213 158.293 62.0883 158.466 61.917 158.596C61.5918 158.802 61.2712 158.637 61.198 158.22C61.1646 158.008 61.1896 157.791 61.2703 157.591C61.351 157.392 61.4843 157.219 61.656 157.089C61.9811 156.878 62.288 157.048 62.375 157.465Z" fill="#263238"/>
<path d="M62.9063 160.478C62.9396 160.691 62.9146 160.908 62.834 161.107C62.7533 161.307 62.62 161.48 62.4483 161.61C62.1231 161.82 61.8025 161.651 61.7292 161.234C61.6959 161.022 61.7209 160.804 61.8016 160.605C61.8823 160.406 62.0156 160.232 62.1872 160.103C62.5124 159.897 62.833 160.062 62.9063 160.478Z" fill="#263238"/>
<path d="M63.8132 158.221C63.8456 158.432 63.8202 158.649 63.7395 158.847C63.6589 159.046 63.5261 159.218 63.3552 159.347C63.0346 159.558 62.7094 159.389 62.6361 158.972C62.6043 158.76 62.63 158.543 62.7105 158.344C62.7911 158.145 62.9235 157.971 63.0941 157.841C63.4193 157.635 63.7399 157.804 63.8132 158.221Z" fill="#263238"/>
<path d="M61.4682 159.728C61.501 159.94 61.4758 160.157 61.3951 160.356C61.3145 160.556 61.1815 160.729 61.0102 160.859C60.6896 161.065 60.3644 160.895 60.2911 160.479C60.2598 160.266 60.2857 160.05 60.3662 159.851C60.4468 159.652 60.5789 159.478 60.7491 159.347C61.0743 159.141 61.3949 159.311 61.4682 159.728Z" fill="#263238"/>
<path d="M62.3979 157.479C62.4313 157.691 62.4063 157.909 62.3256 158.108C62.2449 158.307 62.1116 158.481 61.9399 158.61C61.6193 158.821 61.2942 158.651 61.2209 158.235C61.189 158.022 61.2148 157.805 61.2953 157.606C61.3759 157.407 61.5083 157.234 61.6789 157.103C62.0041 156.897 62.3247 157.062 62.3979 157.479Z" fill="#263238"/>
<path d="M62.9292 160.497C62.9617 160.708 62.9362 160.925 62.8556 161.123C62.775 161.321 62.6421 161.494 62.4712 161.623C62.1506 161.834 61.8254 161.665 61.7522 161.248C61.7203 161.035 61.746 160.819 61.8266 160.62C61.9071 160.421 62.0396 160.247 62.2102 160.116C62.5353 159.91 62.8559 160.08 62.9292 160.497Z" fill="#263238"/>
<path d="M63.8406 158.234C63.8725 158.447 63.8468 158.663 63.7662 158.862C63.6856 159.061 63.5532 159.235 63.3826 159.366C63.0574 159.572 62.7369 159.402 62.6636 158.99C62.6302 158.778 62.6553 158.56 62.7359 158.361C62.8166 158.162 62.9499 157.988 63.1216 157.859C63.4422 157.648 63.7673 157.817 63.8406 158.234Z" fill="#263238"/>
<path d="M61.4957 159.741C61.5275 159.953 61.5018 160.17 61.4212 160.369C61.3407 160.568 61.2082 160.742 61.0377 160.872C60.7125 161.078 60.3919 160.914 60.3186 160.497C60.2853 160.284 60.3103 160.067 60.391 159.868C60.4716 159.668 60.6049 159.495 60.7766 159.366C61.0972 159.155 61.4224 159.324 61.4957 159.741Z" fill="#263238"/>
<path d="M62.4254 157.497C62.4572 157.709 62.4315 157.926 62.351 158.125C62.2704 158.324 62.138 158.498 61.9674 158.628C61.6422 158.834 61.3216 158.665 61.2484 158.248C61.2159 158.036 61.2413 157.82 61.322 157.622C61.4026 157.423 61.5354 157.25 61.7064 157.121C62.027 156.911 62.3521 157.094 62.4254 157.497Z" fill="#263238"/>
<path d="M62.9567 160.511C62.9885 160.723 62.9628 160.94 62.8823 161.139C62.8017 161.338 62.6692 161.512 62.4987 161.642C62.1735 161.848 61.8529 161.683 61.7796 161.266C61.7463 161.054 61.7713 160.837 61.852 160.637C61.9327 160.438 62.066 160.264 62.2376 160.135C62.5582 159.924 62.8834 160.094 62.9567 160.511Z" fill="#263238"/>
<path d="M63.8635 158.248C63.8968 158.46 63.8718 158.678 63.7912 158.877C63.7105 159.076 63.5772 159.25 63.4055 159.379C63.0803 159.59 62.7597 159.42 62.6865 159.004C62.6536 158.791 62.6789 158.574 62.7595 158.375C62.8401 158.176 62.9732 158.002 63.1445 157.872C63.4696 157.666 63.7902 157.831 63.8635 158.248Z" fill="#263238"/>
<path d="M61.5186 159.755C61.5519 159.967 61.5269 160.185 61.4462 160.384C61.3655 160.583 61.2322 160.757 61.0606 160.886C60.7354 161.097 60.4148 160.927 60.3415 160.51C60.3087 160.298 60.3339 160.081 60.4146 159.882C60.4952 159.682 60.6282 159.509 60.7995 159.379C61.1247 159.173 61.4453 159.338 61.5186 159.755Z" fill="#263238"/>
<path d="M62.4483 157.511C62.4811 157.723 62.4559 157.94 62.3753 158.139C62.2946 158.339 62.1616 158.512 61.9903 158.642C61.6651 158.848 61.3445 158.683 61.2713 158.266C61.2379 158.054 61.2629 157.837 61.3436 157.637C61.4243 157.438 61.5576 157.264 61.7293 157.135C62.0544 156.924 62.375 157.094 62.4483 157.511Z" fill="#263238"/>
<path d="M62.9796 160.524C63.0129 160.737 62.9879 160.954 62.9072 161.153C62.8266 161.353 62.6933 161.526 62.5216 161.655C62.1964 161.866 61.8758 161.697 61.8025 161.28C61.7697 161.068 61.7949 160.85 61.8756 160.651C61.9562 160.452 62.0892 160.278 62.2605 160.149C62.5857 159.943 62.9063 160.107 62.9796 160.524Z" fill="#263238"/>
<path d="M63.8864 158.267C63.9187 158.479 63.8933 158.696 63.8127 158.895C63.7321 159.094 63.5993 159.268 63.4284 159.398C63.1032 159.604 62.7826 159.435 62.7094 159.018C62.6765 158.805 62.7018 158.588 62.7824 158.389C62.8631 158.19 62.9961 158.016 63.1674 157.887C63.4925 157.68 63.8131 157.85 63.8864 158.267Z" fill="#263238"/>
<path d="M61.5415 159.773C61.5743 159.986 61.549 160.203 61.4684 160.402C61.3878 160.601 61.2548 160.775 61.0835 160.905C60.7629 161.111 60.4377 160.941 60.3644 160.524C60.3329 160.313 60.3588 160.097 60.4394 159.898C60.52 159.7 60.6522 159.527 60.8224 159.398C61.1476 159.187 61.4682 159.357 61.5415 159.773Z" fill="#263238"/>
<path d="M62.4712 157.524C62.5045 157.737 62.4795 157.954 62.3988 158.153C62.3182 158.353 62.1849 158.526 62.0132 158.656C61.6926 158.866 61.3674 158.697 61.2941 158.28C61.2623 158.068 61.288 157.851 61.3686 157.652C61.4491 157.453 61.5816 157.279 61.7521 157.149C62.0773 156.943 62.3979 157.094 62.4712 157.524Z" fill="#263238"/>
<path d="M63.0025 160.543C63.0348 160.755 63.0093 160.972 62.9287 161.171C62.8481 161.37 62.7154 161.544 62.5445 161.674C62.2239 161.88 61.8987 161.71 61.8254 161.294C61.7936 161.081 61.8193 160.864 61.8999 160.665C61.9804 160.466 62.1129 160.293 62.2834 160.162C62.6086 159.956 62.9292 160.126 63.0025 160.543Z" fill="#263238"/>
<path d="M63.9093 158.28C63.9421 158.492 63.9169 158.71 63.8363 158.909C63.7556 159.108 63.6226 159.282 63.4513 159.411C63.1307 159.618 62.8056 159.453 62.7323 159.036C62.7 158.824 62.7254 158.606 62.806 158.407C62.8866 158.208 63.0194 158.035 63.1903 157.905C63.5155 157.694 63.836 157.863 63.9093 158.28Z" fill="#263238"/>
<path d="M61.5689 159.787C61.6008 159.999 61.5751 160.216 61.4945 160.415C61.414 160.614 61.2815 160.788 61.1109 160.918C60.7858 161.124 60.4652 160.959 60.3919 160.543C60.3586 160.33 60.3836 160.113 60.4642 159.914C60.5449 159.714 60.6782 159.541 60.8499 159.411C61.1705 159.201 61.4957 159.384 61.5689 159.787Z" fill="#263238"/>
<path d="M62.4987 157.552C62.5305 157.764 62.5048 157.981 62.4242 158.18C62.3437 158.379 62.2112 158.553 62.0407 158.683C61.7155 158.889 61.3949 158.72 61.3216 158.308C61.2883 158.095 61.3133 157.878 61.394 157.679C61.4746 157.479 61.6079 157.306 61.7796 157.176C62.1002 156.957 62.4254 157.126 62.4987 157.552Z" fill="#263238"/>
<path d="M63.03 160.557C63.0618 160.769 63.0361 160.986 62.9555 161.185C62.875 161.384 62.7425 161.557 62.572 161.688C62.2468 161.894 61.9262 161.729 61.8529 161.312C61.8196 161.1 61.8446 160.882 61.9253 160.683C62.0059 160.484 62.1392 160.31 62.3109 160.181C62.6315 159.97 62.9567 160.14 63.03 160.557Z" fill="#263238"/>
<path d="M63.9368 158.294C63.9691 158.506 63.9437 158.723 63.8631 158.922C63.7825 159.121 63.6497 159.295 63.4788 159.425C63.1536 159.636 62.833 159.466 62.7597 159.049C62.7269 158.837 62.7522 158.62 62.8328 158.421C62.9134 158.222 63.0464 158.048 63.2177 157.918C63.5383 157.712 63.8635 157.877 63.9368 158.294Z" fill="#263238"/>
<path d="M61.5918 159.801C61.6252 160.013 61.6002 160.23 61.5195 160.43C61.4388 160.629 61.3055 160.802 61.1338 160.932C60.8087 161.143 60.4881 160.973 60.4148 160.556C60.382 160.344 60.4072 160.127 60.4878 159.928C60.5685 159.728 60.7015 159.555 60.8728 159.425C61.198 159.219 61.5186 159.384 61.5918 159.801Z" fill="#263238"/>
<path d="M62.5216 157.552C62.5549 157.764 62.5299 157.982 62.4492 158.181C62.3686 158.38 62.2353 158.554 62.0636 158.683C61.7384 158.894 61.4178 158.724 61.3445 158.307C61.3112 158.095 61.3362 157.878 61.4169 157.678C61.4975 157.479 61.6308 157.306 61.8025 157.176C62.1277 156.97 62.4483 157.14 62.5216 157.552Z" fill="#263238"/>
<path d="M63.0529 160.57C63.0862 160.783 63.0612 161 62.9805 161.199C62.8998 161.398 62.7665 161.572 62.5949 161.701C62.2697 161.912 61.9491 161.743 61.8758 161.326C61.843 161.113 61.8682 160.896 61.9489 160.697C62.0295 160.498 62.1625 160.324 62.3338 160.195C62.659 159.988 62.9796 160.153 63.0529 160.57Z" fill="#263238"/>
<path d="M63.9597 158.312C63.9925 158.525 63.9673 158.742 63.8866 158.941C63.806 159.14 63.673 159.314 63.5017 159.444C63.1765 159.65 62.8559 159.48 62.7826 159.063C62.7502 158.852 62.7756 158.635 62.8563 158.437C62.9369 158.239 63.0697 158.066 63.2406 157.937C63.5658 157.726 63.8864 157.896 63.9597 158.312Z" fill="#263238"/>
<path d="M61.6147 159.842C61.6476 160.054 61.6223 160.272 61.5417 160.471C61.4611 160.67 61.328 160.844 61.1567 160.973C60.8361 161.179 60.511 161.01 60.4377 160.598C60.4044 160.385 60.4294 160.168 60.51 159.969C60.5907 159.77 60.724 159.596 60.8957 159.467C61.2209 159.233 61.5415 159.384 61.6147 159.842Z" fill="#263238"/>
<path d="M62.5445 157.575C62.5769 157.786 62.5515 158.003 62.4709 158.201C62.3902 158.4 62.2574 158.572 62.0865 158.701C61.7613 158.912 61.4407 158.743 61.3674 158.326C61.3346 158.114 61.3598 157.896 61.4405 157.697C61.5211 157.498 61.6541 157.324 61.8254 157.195C62.1506 156.989 62.4712 157.158 62.5445 157.575Z" fill="#263238"/>
<path d="M63.0758 160.588C63.1086 160.801 63.0834 161.018 63.0027 161.217C62.9221 161.416 62.7891 161.59 62.6178 161.72C62.2972 161.926 61.972 161.756 61.8987 161.339C61.8663 161.128 61.8917 160.911 61.9723 160.713C62.053 160.515 62.1858 160.342 62.3567 160.213C62.6819 160.002 63.0025 160.171 63.0758 160.588Z" fill="#263238"/>
<path d="M63.9826 158.326C64.0154 158.538 63.9902 158.756 63.9096 158.955C63.8289 159.154 63.6959 159.328 63.5246 159.457C63.204 159.663 62.8788 159.499 62.8055 159.082C62.7732 158.869 62.7987 158.652 62.8793 158.453C62.9599 158.254 63.0926 158.081 63.2635 157.95C63.5887 157.74 63.9093 157.909 63.9826 158.326Z" fill="#263238"/>
<path d="M61.6376 159.842C61.671 160.054 61.646 160.272 61.5653 160.471C61.4846 160.67 61.3513 160.844 61.1796 160.973C60.859 161.184 60.5384 161.014 60.4606 160.598C60.4283 160.385 60.4537 160.168 60.5343 159.969C60.6149 159.77 60.7477 159.596 60.9186 159.466C61.2438 159.247 61.5644 159.416 61.6376 159.842Z" fill="#263238"/>
<path d="M62.5674 157.589C62.6002 157.801 62.575 158.018 62.4943 158.218C62.4137 158.417 62.2807 158.59 62.1094 158.72C61.7888 158.926 61.4636 158.757 61.3903 158.344C61.358 158.132 61.3835 157.915 61.4641 157.716C61.5447 157.517 61.6774 157.343 61.8483 157.213C62.1735 157.003 62.4941 157.172 62.5674 157.589Z" fill="#263238"/>
<path d="M63.0987 160.602C63.1315 160.815 63.1062 161.032 63.0256 161.231C62.945 161.43 62.812 161.604 62.6407 161.734C62.3201 161.94 61.9995 161.775 61.9262 161.358C61.8929 161.146 61.9179 160.928 61.9985 160.729C62.0792 160.53 62.2125 160.356 62.3842 160.227C62.7048 160.016 63.0254 160.186 63.0987 160.602Z" fill="#263238"/>
<path d="M64.0101 158.34C64.0424 158.552 64.0169 158.769 63.9363 158.968C63.8557 159.167 63.723 159.341 63.5521 159.471C63.2269 159.682 62.9063 159.512 62.833 159.096C62.8002 158.883 62.8255 158.666 62.9061 158.467C62.9867 158.268 63.1197 158.094 63.291 157.964C63.6116 157.758 63.9368 157.928 64.0101 158.34Z" fill="#263238"/>
<path d="M61.6651 159.842C61.6966 160.054 61.6707 160.27 61.5901 160.468C61.5096 160.666 61.3773 160.839 61.2071 160.969C60.8819 161.179 60.5613 161.01 60.4881 160.593C60.4552 160.381 60.4805 160.164 60.5611 159.964C60.6417 159.765 60.7748 159.592 60.9461 159.462C61.2667 159.265 61.5918 159.434 61.6651 159.842Z" fill="#263238"/>
<path d="M62.5949 157.602C62.6272 157.815 62.6017 158.032 62.5211 158.231C62.4405 158.43 62.3078 158.604 62.1369 158.734C61.8117 158.944 61.4911 158.775 61.4178 158.358C61.385 158.146 61.4102 157.928 61.4909 157.729C61.5715 157.53 61.7045 157.357 61.8758 157.227C62.1964 157.021 62.5216 157.186 62.5949 157.602Z" fill="#263238"/>
<path d="M63.1261 160.616C63.1585 160.828 63.133 161.045 63.0524 161.244C62.9718 161.443 62.8391 161.617 62.6681 161.747C62.343 161.958 62.0224 161.788 61.9491 161.371C61.9163 161.159 61.9415 160.942 62.0221 160.743C62.1028 160.543 62.2358 160.37 62.4071 160.24C62.746 160.034 63.0529 160.203 63.1261 160.616Z" fill="#263238"/>
<path d="M64.033 158.358C64.0658 158.57 64.0406 158.787 63.9599 158.987C63.8793 159.186 63.7463 159.359 63.575 159.489C63.2498 159.695 62.9292 159.526 62.8559 159.113C62.8226 158.901 62.8476 158.684 62.9283 158.484C63.009 158.285 63.1423 158.112 63.3139 157.982C63.662 157.772 63.9597 157.941 64.033 158.358Z" fill="#263238"/>
<path d="M61.688 159.865C61.7209 160.077 61.6956 160.294 61.615 160.493C61.5343 160.693 61.4013 160.866 61.23 160.996C60.9049 161.202 60.5842 161.033 60.511 160.62C60.4776 160.408 60.5027 160.191 60.5833 159.991C60.664 159.792 60.7973 159.618 60.969 159.489C61.2941 159.278 61.6148 159.448 61.688 159.865Z" fill="#263238"/>
<path d="M62.6178 157.621C62.6501 157.833 62.6246 158.05 62.544 158.249C62.4634 158.448 62.3307 158.622 62.1598 158.752C61.8346 158.958 61.514 158.789 61.4407 158.372C61.4079 158.159 61.4331 157.942 61.5138 157.743C61.5944 157.544 61.7274 157.37 61.8987 157.241C62.2239 157.034 62.5445 157.204 62.6178 157.621Z" fill="#263238"/>
<path d="M63.149 160.634C63.1819 160.846 63.1566 161.064 63.076 161.263C62.9954 161.462 62.8623 161.636 62.691 161.765C62.3659 161.972 62.0453 161.802 61.972 161.39C61.9387 161.177 61.9637 160.96 62.0443 160.761C62.125 160.562 62.2583 160.388 62.43 160.259C62.746 160.048 63.0758 160.217 63.149 160.634Z" fill="#263238"/>
<path d="M64.0559 158.372C64.0892 158.584 64.0642 158.802 63.9835 159.001C63.9029 159.2 63.7696 159.374 63.5979 159.503C63.2773 159.714 62.9521 159.544 62.8788 159.128C62.8465 158.915 62.872 158.698 62.9526 158.499C63.0332 158.3 63.1659 158.126 63.3368 157.996C63.662 157.786 63.9826 157.955 64.0559 158.372Z" fill="#263238"/>
<path d="M61.7109 159.879C61.7443 160.091 61.7193 160.309 61.6386 160.508C61.5579 160.707 61.4246 160.881 61.2529 161.01C60.9323 161.221 60.6072 161.051 60.5339 160.634C60.5021 160.422 60.5278 160.205 60.6083 160.006C60.6889 159.807 60.8213 159.634 60.9919 159.503C61.3171 159.297 61.6377 159.462 61.7109 159.879Z" fill="#263238"/>
<path d="M71.2373 152.115L71.5763 152.294L70.4038 153.05L70.0648 152.871L71.2373 152.115Z" fill="#263238"/>
<path d="M70.3305 154.378L70.6694 154.557L69.4969 155.308L69.158 155.129L70.3305 154.378Z" fill="#263238"/>
<path d="M71.8419 153.801L71.7778 153.448L72.68 152.871L73.0144 153.05L71.8419 153.801Z" fill="#263238"/>
<path d="M69.158 155.129L69.4969 155.308L69.7626 156.814L69.4236 156.64L69.158 155.129Z" fill="#263238"/>
<path d="M70.8618 157.392L71.2007 157.57L70.9351 156.063L70.6602 156.242L70.8618 157.392Z" fill="#263238"/>
<path d="M62.6178 157.621C62.6501 157.833 62.6246 158.05 62.544 158.249C62.4634 158.448 62.3307 158.622 62.1598 158.752C61.8346 158.958 61.514 158.789 61.4407 158.372C61.4079 158.159 61.4331 157.942 61.5138 157.743C61.5944 157.544 61.7274 157.37 61.8987 157.241C62.2239 157.034 62.5445 157.204 62.6178 157.621Z" fill="#FFC44A"/>
<path d="M63.149 160.634C63.1819 160.846 63.1566 161.064 63.076 161.263C62.9954 161.462 62.8623 161.636 62.691 161.765C62.3659 161.972 62.0453 161.802 61.972 161.39C61.9387 161.177 61.9637 160.96 62.0443 160.761C62.125 160.562 62.2583 160.388 62.43 160.259C62.746 160.048 63.0758 160.217 63.149 160.634Z" fill="#FFC44A"/>
<path d="M64.0559 158.372C64.0892 158.584 64.0642 158.802 63.9835 159.001C63.9029 159.2 63.7696 159.374 63.5979 159.503C63.2773 159.714 62.9521 159.544 62.8788 159.128C62.8465 158.915 62.872 158.698 62.9526 158.499C63.0332 158.3 63.1659 158.126 63.3368 157.996C63.662 157.786 63.9826 157.955 64.0559 158.372Z" fill="#FFC44A"/>
<path d="M61.7109 159.879C61.7443 160.091 61.7193 160.309 61.6386 160.508C61.5579 160.707 61.4246 160.881 61.2529 161.01C60.9323 161.221 60.6072 161.051 60.5339 160.634C60.5021 160.422 60.5278 160.205 60.6083 160.006C60.6889 159.807 60.8213 159.634 60.9919 159.503C61.3171 159.297 61.6377 159.462 61.7109 159.879Z" fill="#FFC44A"/>
<path d="M73.8846 29.628L68.9611 32.4676C68.9883 32.2519 69.0021 32.0347 69.0023 31.8172V30.3928C69.0023 27.8555 67.2206 26.825 65.0268 28.1028C64.0784 28.6839 63.2686 29.4655 62.6544 30.3928C62.2926 27.1868 59.7919 26.0144 56.7508 27.7685C53.4623 29.6692 50.7968 34.2858 50.7968 38.0781V40.2124C50.7758 41.0642 50.948 41.9098 51.3006 42.6856L47.2106 45.0443C46.5683 45.4637 46.0338 46.0285 45.6503 46.6929C45.2668 47.3572 45.045 48.1026 45.0031 48.8686C45.0031 50.2746 45.9923 50.8471 47.2106 50.1418L73.8846 34.7438C74.5269 34.3244 75.0614 33.7596 75.4449 33.0952C75.8284 32.4309 76.0501 31.6855 76.0921 30.9195C76.0921 29.4952 75.112 28.9227 73.8846 29.628Z" fill="#F0F0F0"/>
<path d="M176.179 157.602L175.263 157.085L175.913 156.792C175.913 156.792 176.422 156.929 176.435 156.952C176.431 157.07 176.419 157.188 176.399 157.304L176.179 157.602Z" fill="#E0E0E0"/>
<path d="M176.179 157.602L175.263 157.085L175.913 156.792C175.913 156.792 176.422 156.929 176.435 156.952C176.431 157.07 176.419 157.188 176.399 157.304L176.179 157.602Z" fill="#FFC44A"/>
<path opacity="0.1" d="M176.179 157.602L175.263 157.085L175.913 156.792C175.913 156.792 176.422 156.929 176.435 156.952C176.431 157.07 176.419 157.188 176.399 157.304L176.179 157.602Z" fill="white"/>
<path d="M142.094 174.773C142.5 174.978 142.949 175.085 143.404 175.085C143.859 175.085 144.308 174.978 144.714 174.773L174.09 157.827L130.122 132.435L129.096 131.844L99.7203 148.79C99.0013 149.207 99.0013 149.889 99.7203 150.302L142.094 174.773Z" fill="#FFC44A"/>
<path opacity="0.8" d="M142.094 174.773C142.5 174.978 142.949 175.085 143.404 175.085C143.859 175.085 144.308 174.978 144.714 174.773L174.09 157.827L130.122 132.435L129.096 131.844L99.7203 148.79C99.0013 149.207 99.0013 149.889 99.7203 150.302L142.094 174.773Z" fill="white"/>
<path d="M153.128 142.731L163.373 148.625L170.005 144.797L177.704 149.257V154.804C177.704 155.477 176.948 156.434 176.673 156.279C176.165 156.401 175.671 156.576 175.199 156.801C174.428 157.239 173.713 157.768 173.069 158.376L149.528 144.787L153.128 142.731Z" fill="#E0E0E0"/>
<path d="M153.128 142.731L163.373 148.625L170.005 144.797L177.704 149.257V154.804C177.704 155.477 176.948 156.434 176.673 156.279C176.165 156.401 175.671 156.576 175.199 156.801C174.428 157.239 173.713 157.768 173.069 158.376L149.528 144.787L153.128 142.731Z" fill="#FFC44A"/>
<path opacity="0.1" d="M153.128 142.731L163.373 148.625L170.005 144.797L177.704 149.257V154.804C177.704 155.477 176.948 156.434 176.673 156.279C176.165 156.401 175.671 156.576 175.199 156.801C174.428 157.239 173.713 157.768 173.069 158.376L149.528 144.787L153.128 142.731Z" fill="white"/>
<path d="M144.728 174.768L146.5 173.742L173.097 158.39C173.117 158.043 173.243 157.71 173.458 157.437C173.772 157.02 174.168 156.671 174.622 156.411C175.001 156.179 175.432 156.045 175.877 156.022C176.174 156.018 176.464 156.113 176.701 156.292C177.047 155.612 177.216 154.856 177.191 154.094H178.199C178.199 155.468 177.741 156.878 177.177 157.199L176.669 157.497C176.38 157.662 176.151 157.671 176.151 157.497V157.226C176.151 156.924 175.693 156.938 175.125 157.268C174.558 157.597 174.104 158.101 174.104 158.404V158.678C174.104 158.834 173.71 159.182 173.234 159.457L147.513 174.31L144.728 175.913C144.325 176.121 143.876 176.227 143.423 176.22V175.056C143.875 175.075 144.325 174.976 144.728 174.768Z" fill="#FFC44A"/>
<path opacity="0.6" d="M144.728 174.768L146.5 173.742L173.097 158.39C173.117 158.043 173.243 157.71 173.458 157.437C173.772 157.02 174.168 156.671 174.622 156.411C175.001 156.179 175.432 156.045 175.877 156.022C176.174 156.018 176.464 156.113 176.701 156.292C177.047 155.612 177.216 154.856 177.191 154.094H178.199C178.199 155.468 177.741 156.878 177.177 157.199L176.669 157.497C176.38 157.662 176.151 157.671 176.151 157.497V157.226C176.151 156.924 175.693 156.938 175.125 157.268C174.558 157.597 174.104 158.101 174.104 158.404V158.678C174.104 158.834 173.71 159.182 173.234 159.457L147.513 174.31L144.728 175.913C144.325 176.121 143.876 176.227 143.423 176.22V175.056C143.875 175.075 144.325 174.976 144.728 174.768Z" fill="white"/>
<path d="M99.1707 149.523V150.709C99.1859 150.868 99.2419 151.019 99.3335 151.149C99.425 151.279 99.5489 151.383 99.6929 151.451L139.296 174.314L142.076 175.917C142.479 176.126 142.928 176.231 143.381 176.224V175.061C142.925 175.072 142.473 174.963 142.072 174.745L140.304 173.724L99.6929 150.269C99.5483 150.201 99.424 150.097 99.3324 149.966C99.2408 149.835 99.1851 149.682 99.1707 149.523Z" fill="#FFC44A"/>
<path opacity="0.1" d="M99.1707 149.523V150.709C99.1859 150.868 99.2419 151.019 99.3335 151.149C99.425 151.279 99.5489 151.383 99.6929 151.451L139.296 174.314L142.076 175.917C142.479 176.126 142.928 176.231 143.381 176.224V175.061C142.925 175.072 142.473 174.963 142.072 174.745L140.304 173.724L99.6929 150.269C99.5483 150.201 99.424 150.097 99.3324 149.966C99.2408 149.835 99.1851 149.682 99.1707 149.523Z" fill="white"/>
<path d="M143.404 167.243V174.04C143.708 174.049 144.008 173.978 144.275 173.834L147.481 171.974L172.025 157.804V150.714L143.404 167.243Z" fill="white"/>
<path d="M100.449 143.29V148.515C100.465 148.818 100.552 149.112 100.703 149.375C100.854 149.638 101.065 149.861 101.319 150.027L139.333 171.965L142.539 173.824C142.806 173.968 143.106 174.039 143.409 174.031V167.962L100.449 143.29Z" fill="#F0F0F0"/>
<path d="M172.043 157.794C172.068 157.447 172.197 157.114 172.414 156.842C172.73 156.427 173.125 156.08 173.577 155.82C173.954 155.585 174.384 155.449 174.828 155.426C175.126 155.424 175.417 155.519 175.657 155.697V148.621L172.052 150.704L172.043 157.794Z" fill="#455A64"/>
<path d="M173.486 155.88C173.068 156.127 172.704 156.454 172.414 156.842C172.197 157.115 172.068 157.447 172.043 157.795V151.035H173.481L173.486 155.88Z" fill="#F5F5F5"/>
<path d="M130.113 124.118L174.081 149.509V150.1C174.081 150.425 174.539 150.558 175.103 150.219C175.666 149.88 176.128 149.486 176.128 148.923L176.183 148.364L131.377 122.496L131.199 122.391C131.152 122.474 131.125 122.566 131.121 122.661V122.936C131.13 123.275 130.677 123.802 130.113 124.118Z" fill="#FFC44A"/>
<path opacity="0.6" d="M130.113 124.118L174.081 149.509V150.1C174.081 150.425 174.539 150.558 175.103 150.219C175.666 149.88 176.128 149.486 176.128 148.923L176.183 148.364L131.377 122.496L131.199 122.391C131.152 122.474 131.125 122.566 131.121 122.661V122.936C131.13 123.275 130.677 123.802 130.113 124.118Z" fill="white"/>
<path d="M144.728 166.487L173.454 149.898C173.816 149.711 174.15 149.555 174.292 149.628L174.104 149.523L130.136 124.131L129.623 123.834C129.393 123.768 129.151 123.753 128.914 123.788C128.677 123.824 128.45 123.909 128.249 124.04L99.7478 140.5C99.0287 140.917 99.0287 141.595 99.7478 142.012L142.131 166.487C142.534 166.689 142.979 166.794 143.43 166.794C143.88 166.794 144.325 166.689 144.728 166.487Z" fill="#FFC44A"/>
<path opacity="0.8" d="M144.728 166.487L173.454 149.898C173.816 149.711 174.15 149.555 174.292 149.628L174.104 149.523L130.136 124.131L129.623 123.834C129.393 123.768 129.151 123.753 128.914 123.788C128.677 123.824 128.45 123.909 128.249 124.04L99.7478 140.5C99.0287 140.917 99.0287 141.595 99.7478 142.012L142.131 166.487C142.534 166.689 142.979 166.794 143.43 166.794C143.88 166.794 144.325 166.689 144.728 166.487Z" fill="white"/>
<path d="M131.208 122.405L131.386 122.51L176.193 148.392C176.215 148.344 176.248 148.302 176.289 148.268L176.44 148.181L176.765 147.998L177.164 147.764C177.241 147.713 177.333 147.69 177.426 147.698C177.518 147.706 177.605 147.746 177.672 147.81C177.691 147.823 177.708 147.838 177.722 147.856C177.776 147.911 177.821 147.975 177.855 148.044C177.904 148.123 177.944 148.208 177.974 148.296C178.009 148.39 178.038 148.486 178.061 148.584C178.089 148.699 178.107 148.809 178.13 148.928C178.142 148.996 178.15 149.065 178.153 149.134C178.153 149.189 178.153 149.239 178.153 149.303C178.153 149.367 178.153 149.56 178.153 149.693V148.433C178.105 148.019 177.962 147.622 177.735 147.273C177.508 146.924 177.202 146.633 176.843 146.423L134.455 121.947C134.106 121.741 133.714 121.618 133.309 121.589C132.905 121.56 132.499 121.624 132.124 121.778L131.588 122.089L131.359 122.217C131.293 122.265 131.241 122.33 131.208 122.405Z" fill="#FFC44A"/>
<path opacity="0.8" d="M131.208 122.405L131.386 122.51L176.193 148.392C176.215 148.344 176.248 148.302 176.289 148.268L176.44 148.181L176.765 147.998L177.164 147.764C177.241 147.713 177.333 147.69 177.426 147.698C177.518 147.706 177.605 147.746 177.672 147.81C177.691 147.823 177.708 147.838 177.722 147.856C177.776 147.911 177.821 147.975 177.855 148.044C177.904 148.123 177.944 148.208 177.974 148.296C178.009 148.39 178.038 148.486 178.061 148.584C178.089 148.699 178.107 148.809 178.13 148.928C178.142 148.996 178.15 149.065 178.153 149.134C178.153 149.189 178.153 149.239 178.153 149.303C178.153 149.367 178.153 149.56 178.153 149.693V148.433C178.105 148.019 177.962 147.622 177.735 147.273C177.508 146.924 177.202 146.633 176.843 146.423L134.455 121.947C134.106 121.741 133.714 121.618 133.309 121.589C132.905 121.56 132.499 121.624 132.124 121.778L131.588 122.089L131.359 122.217C131.293 122.265 131.241 122.33 131.208 122.405Z" fill="white"/>
<path d="M144.728 166.492L146.505 165.462L166.936 153.673L173.458 149.908C173.916 149.633 174.301 149.537 174.324 149.679V149.972C174.324 150.302 174.782 150.302 175.345 149.972C175.554 149.881 175.737 149.74 175.878 149.561C176.019 149.382 176.113 149.171 176.151 148.946V148.626C176.145 148.554 176.155 148.482 176.181 148.415C176.207 148.348 176.249 148.289 176.303 148.241L176.454 148.154L176.779 147.971L177.177 147.737C177.255 147.686 177.347 147.662 177.44 147.671C177.532 147.679 177.619 147.719 177.686 147.783C177.705 147.796 177.722 147.811 177.736 147.829C177.77 147.864 177.799 147.904 177.823 147.948C177.842 147.968 177.858 147.991 177.869 148.016C177.918 148.096 177.958 148.18 177.988 148.268C178.023 148.363 178.052 148.459 178.075 148.557C178.102 148.671 178.121 148.781 178.144 148.9C178.156 148.969 178.164 149.037 178.167 149.107C178.167 149.161 178.167 149.212 178.167 149.276C178.167 149.34 178.167 149.532 178.167 149.665V154.08H177.159V149.665C177.159 149.56 177.159 149.455 177.159 149.354L177.131 149.102C177.134 149.094 177.134 149.087 177.131 149.079C177.04 149.881 176.275 150.595 175.611 150.971C175.242 151.203 174.819 151.336 174.383 151.355C174.048 151.36 173.722 151.241 173.467 151.021L173.376 151.071L173.202 151.177L147.481 166.03L144.728 167.651C144.331 167.854 143.891 167.956 143.446 167.949V166.785C143.891 166.795 144.331 166.694 144.728 166.492Z" fill="#FFC44A"/>
<path opacity="0.6" d="M144.728 166.492L146.505 165.462L166.936 153.673L173.458 149.908C173.916 149.633 174.301 149.537 174.324 149.679V149.972C174.324 150.302 174.782 150.302 175.345 149.972C175.554 149.881 175.737 149.74 175.878 149.561C176.019 149.382 176.113 149.171 176.151 148.946V148.626C176.145 148.554 176.155 148.482 176.181 148.415C176.207 148.348 176.249 148.289 176.303 148.241L176.454 148.154L176.779 147.971L177.177 147.737C177.255 147.686 177.347 147.662 177.44 147.671C177.532 147.679 177.619 147.719 177.686 147.783C177.705 147.796 177.722 147.811 177.736 147.829C177.77 147.864 177.799 147.904 177.823 147.948C177.842 147.968 177.858 147.991 177.869 148.016C177.918 148.096 177.958 148.18 177.988 148.268C178.023 148.363 178.052 148.459 178.075 148.557C178.102 148.671 178.121 148.781 178.144 148.9C178.156 148.969 178.164 149.037 178.167 149.107C178.167 149.161 178.167 149.212 178.167 149.276C178.167 149.34 178.167 149.532 178.167 149.665V154.08H177.159V149.665C177.159 149.56 177.159 149.455 177.159 149.354L177.131 149.102C177.134 149.094 177.134 149.087 177.131 149.079C177.04 149.881 176.275 150.595 175.611 150.971C175.242 151.203 174.819 151.336 174.383 151.355C174.048 151.36 173.722 151.241 173.467 151.021L173.376 151.071L173.202 151.177L147.481 166.03L144.728 167.651C144.331 167.854 143.891 167.956 143.446 167.949V166.785C143.891 166.795 144.331 166.694 144.728 166.492Z" fill="white"/>
<path d="M99.1707 141.242V142.438C99.1851 142.597 99.2408 142.749 99.3324 142.88C99.424 143.011 99.5483 143.116 99.6929 143.184L139.296 166.047L142.076 167.655C142.479 167.864 142.928 167.969 143.381 167.962V166.799C142.925 166.809 142.474 166.701 142.072 166.487L140.304 165.466L99.6929 142.012C99.5451 141.942 99.4187 141.833 99.3269 141.698C99.2351 141.563 99.1812 141.405 99.1707 141.242Z" fill="#FFC44A"/>
<path opacity="0.1" d="M99.1707 141.242V142.438C99.1851 142.597 99.2408 142.749 99.3324 142.88C99.424 143.011 99.5483 143.116 99.6929 143.184L139.296 166.047L142.076 167.655C142.479 167.864 142.928 167.969 143.381 167.962V166.799C142.925 166.809 142.474 166.701 142.072 166.487L140.304 165.466L99.6929 142.012C99.5451 141.942 99.4187 141.833 99.3269 141.698C99.2351 141.563 99.1812 141.405 99.1707 141.242Z" fill="white"/>
<path d="M128.213 124.04C128.414 123.91 128.64 123.824 128.877 123.788C129.114 123.753 129.356 123.768 129.587 123.834L130.099 124.131C130.663 123.802 131.116 123.275 131.116 122.95V122.675C131.121 122.58 131.147 122.488 131.194 122.405C131.23 122.33 131.285 122.267 131.354 122.222L131.583 122.093L132.119 121.782C132.495 121.629 132.9 121.564 133.305 121.593C133.709 121.623 134.101 121.745 134.45 121.951L176.838 146.427L176.884 146.454L146.972 163.726C146.702 163.864 146.403 163.935 146.1 163.935C145.796 163.935 145.497 163.864 145.227 163.726L102.565 138.852L128.213 124.04Z" fill="#263238"/>
<path d="M149.367 161.216L148.236 160.566C148.541 160.46 148.868 160.436 149.184 160.497C149.487 160.653 149.367 161.216 149.367 161.216Z" fill="#FFC44A"/>
<path opacity="0.7" d="M149.367 161.216L148.236 160.566C148.541 160.46 148.868 160.436 149.184 160.497C149.487 160.653 149.367 161.216 149.367 161.216Z" fill="#1D1D1D"/>
<path d="M150.146 160.515C150.017 160.375 149.861 160.264 149.688 160.188C149.514 160.112 149.326 160.073 149.136 160.073C148.947 160.073 148.759 160.112 148.585 160.188C148.411 160.264 148.255 160.375 148.126 160.515C147.023 161.527 146.968 162.53 146.51 162.516C146.052 162.503 146.052 154.433 146.052 154.433L150.407 158.468L150.146 160.515Z" fill="#FFC44A"/>
<path opacity="0.7" d="M150.146 160.515C150.017 160.375 149.861 160.264 149.688 160.188C149.514 160.112 149.326 160.073 149.136 160.073C148.947 160.073 148.759 160.112 148.585 160.188C148.411 160.264 148.255 160.375 148.126 160.515C147.023 161.527 146.968 162.53 146.51 162.516C146.052 162.503 146.052 154.433 146.052 154.433L150.407 158.468L150.146 160.515Z" fill="#1D1D1D"/>
<path d="M104.612 131.18L104.539 131.139L105.235 130.736L135.225 113.423L178.922 141.7C179.641 142.117 179.77 142.722 179.206 143.042L178.185 143.633L150.155 159.842L149.954 159.695L104.612 131.18Z" fill="#FFC44A"/>
<path opacity="0.5" d="M104.612 131.18L104.539 131.139L105.235 130.736L135.225 113.423L178.922 141.7C179.641 142.117 179.77 142.722 179.206 143.042L178.185 143.633L150.155 159.842L149.954 159.695L104.612 131.18Z" fill="#1D1D1D"/>
<path d="M146.413 150.613L148.584 150.155V158.857C147.274 159.416 146.441 159.938 146.294 161.033L146.413 150.613Z" fill="#455A64"/>
<path d="M149.542 158.971L177.31 142.941C177.565 142.776 177.776 142.553 177.928 142.29C178.08 142.028 178.168 141.733 178.185 141.43V132.861L150.146 149.189C150.146 149.189 149.812 150.402 148.818 150.782C147.824 151.163 148.584 151.552 148.584 151.552V158.88C149.441 158.756 149.542 158.971 149.542 158.971Z" fill="#F0F0F0"/>
<path d="M146.981 150.315C147.27 150.15 147.499 150.141 147.499 150.315V150.585C147.499 150.888 147.957 150.874 148.525 150.544C149.093 150.214 149.551 149.711 149.551 149.408V149.134C149.551 148.978 149.94 148.63 150.416 148.355L105.239 122.469L104.539 122.872C104.441 122.975 104.38 123.107 104.364 123.247V123.522C104.364 123.824 103.906 124.333 103.343 124.658C102.78 124.983 102.317 125.001 102.317 124.699V124.424C102.317 124.269 102.088 124.282 101.804 124.447L146.981 150.315Z" fill="#FFC44A"/>
<path opacity="0.6" d="M146.981 150.315C147.27 150.15 147.499 150.141 147.499 150.315V150.585C147.499 150.888 147.957 150.874 148.525 150.544C149.093 150.214 149.551 149.711 149.551 149.408V149.134C149.551 148.978 149.94 148.63 150.416 148.355L105.239 122.469L104.539 122.872C104.441 122.975 104.38 123.107 104.364 123.247V123.522C104.364 123.824 103.906 124.333 103.343 124.658C102.78 124.983 102.317 125.001 102.317 124.699V124.424C102.317 124.269 102.088 124.282 101.804 124.447L146.981 150.315Z" fill="#1D1D1D"/>
<path d="M104.612 122.895L104.539 122.854L105.235 122.451L135.225 105.138L178.922 130.374C179.641 130.791 179.77 131.391 179.206 131.716L178.185 132.302L150.146 149.189L104.612 122.895Z" fill="#FFC44A"/>
<path opacity="0.5" d="M104.612 122.895L104.539 122.854L105.235 122.451L135.225 105.138L178.922 130.374C179.641 130.791 179.77 131.391 179.206 131.716L178.185 132.302L150.146 149.189L104.612 122.895Z" fill="#1D1D1D"/>
<path d="M102.308 124.146L147.476 150.224L145.896 151.461L100.897 125.483C101.007 125.149 101.217 124.856 101.497 124.645L102.308 124.146Z" fill="#FFC44A"/>
<path opacity="0.5" d="M102.308 124.146L147.476 150.224L145.896 151.461L100.897 125.483C101.007 125.149 101.217 124.856 101.497 124.645L102.308 124.146Z" fill="#1D1D1D"/>
<path d="M101.049 137.139C101.021 137.121 100.995 137.101 100.971 137.079C100.95 137.069 100.932 137.053 100.92 137.033C100.883 136.997 100.852 136.955 100.829 136.91C100.808 136.892 100.793 136.87 100.783 136.845C100.734 136.767 100.695 136.682 100.668 136.594C100.63 136.498 100.6 136.4 100.577 136.3C100.549 136.19 100.531 136.081 100.513 135.961C100.497 135.894 100.488 135.825 100.485 135.755V135.586C100.485 135.462 100.485 135.329 100.485 135.197V127.736C100.477 126.952 100.62 126.175 100.907 125.446L145.905 151.424L146.093 163.112L101.099 137.125L101.049 137.139Z" fill="#FFC44A"/>
<path opacity="0.7" d="M101.049 137.139C101.021 137.121 100.995 137.101 100.971 137.079C100.95 137.069 100.932 137.053 100.92 137.033C100.883 136.997 100.852 136.955 100.829 136.91C100.808 136.892 100.793 136.87 100.783 136.845C100.734 136.767 100.695 136.682 100.668 136.594C100.63 136.498 100.6 136.4 100.577 136.3C100.549 136.19 100.531 136.081 100.513 135.961C100.497 135.894 100.488 135.825 100.485 135.755V135.586C100.485 135.462 100.485 135.329 100.485 135.197V127.736C100.477 126.952 100.62 126.175 100.907 125.446L145.905 151.424L146.093 163.112L101.099 137.125L101.049 137.139Z" fill="#1D1D1D"/>
<path opacity="0.79" d="M145.873 151.442C145.873 151.442 110.433 134.858 107.209 133.337C105.079 132.334 104.035 134.441 104.538 136.621C104.996 138.526 106.861 140.491 106.861 140.491L101.067 137.143C101.039 137.126 101.013 137.106 100.989 137.084C100.968 137.073 100.951 137.057 100.939 137.038C100.902 137.002 100.871 136.96 100.847 136.914C100.827 136.897 100.811 136.875 100.801 136.85C100.752 136.771 100.714 136.687 100.687 136.598C100.649 136.503 100.618 136.405 100.595 136.305C100.568 136.195 100.549 136.085 100.531 135.966C100.515 135.898 100.506 135.829 100.504 135.76V135.59C100.504 135.467 100.504 135.334 100.504 135.201V127.736C100.495 126.952 100.638 126.175 100.925 125.446L145.873 151.442Z" fill="#263238"/>
<path d="M145.456 153.718H146.464C146.44 152.956 146.607 152.201 146.949 151.52C147.189 151.697 147.48 151.792 147.778 151.79C148.222 151.767 148.652 151.632 149.029 151.396C149.482 151.138 149.878 150.791 150.192 150.375C150.216 150.346 150.237 150.315 150.256 150.283C150.434 150.03 150.537 149.731 150.554 149.422L177.15 134.07L178.066 133.543L179.22 132.879C179.32 132.833 179.406 132.761 179.469 132.67C179.531 132.578 179.567 132.472 179.573 132.362V131.185C179.568 131.297 179.532 131.406 179.47 131.499C179.408 131.593 179.322 131.668 179.22 131.716L176.165 133.475L150.448 148.328C149.968 148.602 149.578 148.95 149.578 149.106V149.381C149.55 149.555 149.466 149.715 149.34 149.839C149.119 150.104 148.852 150.328 148.552 150.498C147.984 150.828 147.526 150.842 147.526 150.54V150.269C147.526 150.109 147.302 150.123 147.013 150.269L146.505 150.567C145.914 150.934 145.456 152.33 145.456 153.718Z" fill="#FFC44A"/>
<path d="M146.464 153.718V161.179C146.464 161.284 146.464 161.39 146.464 161.491L146.487 161.742C146.485 161.75 146.485 161.758 146.487 161.765C146.578 160.964 147.343 160.249 148.007 159.874C148.377 159.641 148.802 159.508 149.239 159.489C149.575 159.485 149.901 159.604 150.155 159.823L150.242 159.773L150.421 159.668L176.138 144.815L177.617 143.963L178.038 143.716L179.284 142.997C179.366 142.945 179.434 142.874 179.482 142.791C179.53 142.707 179.556 142.612 179.559 142.516V143.693C179.555 143.784 179.53 143.873 179.486 143.953C179.441 144.032 179.378 144.1 179.302 144.151C179.156 144.238 179 144.32 178.844 144.416L178.556 144.586L178.061 144.87C177.951 144.938 177.851 144.998 177.754 145.048C177.658 145.099 177.603 145.14 177.539 145.172L177.159 145.396L156.728 157.185L150.206 160.95C149.748 161.225 149.368 161.321 149.34 161.179C149.338 161.162 149.338 161.145 149.34 161.129V160.868C149.34 160.538 148.882 160.538 148.319 160.868C148.11 160.958 147.927 161.1 147.786 161.279C147.645 161.458 147.551 161.669 147.513 161.894V162.214C147.519 162.286 147.509 162.358 147.483 162.425C147.457 162.491 147.415 162.551 147.362 162.599L147.21 162.686L146.89 162.869L146.491 163.103C146.414 163.154 146.321 163.178 146.229 163.169C146.137 163.161 146.05 163.121 145.983 163.057C145.962 163.047 145.945 163.031 145.933 163.011C145.896 162.977 145.865 162.936 145.841 162.892C145.823 162.873 145.808 162.851 145.795 162.828C145.746 162.749 145.708 162.665 145.681 162.576C145.642 162.483 145.611 162.386 145.589 162.287C145.562 162.173 145.543 162.063 145.525 161.944C145.509 161.876 145.5 161.807 145.497 161.738C145.497 161.683 145.497 161.633 145.497 161.568C145.497 161.504 145.497 161.312 145.497 161.179V153.718H146.464Z" fill="#FFC44A"/>
<g opacity="0.6">
<path d="M145.456 153.718H146.464C146.44 152.956 146.607 152.201 146.949 151.52C147.189 151.697 147.48 151.792 147.778 151.79C148.222 151.767 148.652 151.632 149.029 151.396C149.482 151.138 149.878 150.791 150.192 150.375C150.216 150.346 150.237 150.315 150.256 150.283C150.434 150.03 150.537 149.731 150.554 149.422L177.15 134.07L178.066 133.543L179.22 132.879C179.32 132.833 179.406 132.761 179.469 132.67C179.531 132.578 179.567 132.472 179.573 132.362V131.185C179.568 131.297 179.532 131.406 179.47 131.499C179.408 131.593 179.322 131.668 179.22 131.716L176.165 133.475L150.448 148.328C149.968 148.602 149.578 148.95 149.578 149.106V149.381C149.55 149.555 149.466 149.715 149.34 149.839C149.119 150.104 148.852 150.328 148.552 150.498C147.984 150.828 147.526 150.842 147.526 150.54V150.269C147.526 150.109 147.302 150.123 147.013 150.269L146.505 150.567C145.914 150.934 145.456 152.33 145.456 153.718Z" fill="#1D1D1D"/>
<path d="M146.464 153.718V161.179C146.464 161.284 146.464 161.39 146.464 161.491L146.487 161.742C146.485 161.75 146.485 161.758 146.487 161.765C146.578 160.964 147.343 160.249 148.007 159.874C148.377 159.641 148.802 159.508 149.239 159.489C149.575 159.485 149.901 159.604 150.155 159.823L150.242 159.773L150.421 159.668L176.138 144.815L177.617 143.963L178.038 143.716L179.284 142.997C179.366 142.945 179.434 142.874 179.482 142.791C179.53 142.707 179.556 142.612 179.559 142.516V143.693C179.555 143.784 179.53 143.873 179.486 143.953C179.441 144.032 179.378 144.1 179.302 144.151C179.156 144.238 179 144.32 178.844 144.416L178.556 144.586L178.061 144.87C177.951 144.938 177.851 144.998 177.754 145.048C177.658 145.099 177.603 145.14 177.539 145.172L177.159 145.396L156.728 157.185L150.206 160.95C149.748 161.225 149.368 161.321 149.34 161.179C149.338 161.162 149.338 161.145 149.34 161.129V160.868C149.34 160.538 148.882 160.538 148.319 160.868C148.11 160.958 147.927 161.1 147.786 161.279C147.645 161.458 147.551 161.669 147.513 161.894V162.214C147.519 162.286 147.509 162.358 147.483 162.425C147.457 162.491 147.415 162.551 147.362 162.599L147.21 162.686L146.89 162.869L146.491 163.103C146.414 163.154 146.321 163.178 146.229 163.169C146.137 163.161 146.05 163.121 145.983 163.057C145.962 163.047 145.945 163.031 145.933 163.011C145.896 162.977 145.865 162.936 145.841 162.892C145.823 162.873 145.808 162.851 145.795 162.828C145.746 162.749 145.708 162.665 145.681 162.576C145.642 162.483 145.611 162.386 145.589 162.287C145.562 162.173 145.543 162.063 145.525 161.944C145.509 161.876 145.5 161.807 145.497 161.738C145.497 161.683 145.497 161.633 145.497 161.568C145.497 161.504 145.497 161.312 145.497 161.179V153.718H146.464Z" fill="#1D1D1D"/>
</g>
<path d="M100.874 125.46L143.643 150.155L175.968 131.491C176.074 131.456 176.166 131.388 176.231 131.298C176.296 131.208 176.331 131.099 176.331 130.988C176.331 130.876 176.296 130.768 176.231 130.677C176.166 130.587 176.074 130.519 175.968 130.484L133.649 106.045L105.253 122.45L104.552 122.858C104.457 122.96 104.398 123.09 104.383 123.229V123.504C104.383 123.806 103.925 124.315 103.361 124.64C103.333 124.659 103.302 124.674 103.27 124.686L102.326 124.141L101.868 124.397L101.804 124.429L101.474 124.621C101.194 124.833 100.985 125.126 100.874 125.46Z" fill="#263238"/>
<path d="M173.582 131.675L172.295 130.988L173.467 130.708C173.58 130.84 173.651 131.002 173.672 131.174C173.692 131.346 173.661 131.521 173.582 131.675Z" fill="#E0E0E0"/>
<g style="mix-blend-mode:multiply" opacity="0.5">
<path d="M173.582 131.675L172.295 130.988L173.467 130.708C173.58 130.84 173.651 131.002 173.672 131.174C173.692 131.346 173.661 131.521 173.582 131.675Z" fill="#E0E0E0"/>
</g>
<path d="M139.475 148.85C139.88 149.055 140.328 149.162 140.782 149.162C141.237 149.162 141.685 149.055 142.09 148.85L171.466 131.904L127.498 104.108L126.468 103.512L97.096 122.858C96.3769 123.275 96.3769 123.953 97.096 124.37L139.475 148.85Z" fill="#FFC44A"/>
<path d="M150.503 114.395L172.698 129.435L160.749 120.275L167.381 116.446L175.093 120.912V128.877C175.093 129.554 174.338 130.512 174.063 130.356C173.555 130.479 173.06 130.654 172.588 130.878C171.818 131.316 171.103 131.845 170.458 132.453L146.922 116.456L150.503 114.395Z" fill="#FFC44A"/>
<path opacity="0.2" d="M150.503 114.395L172.698 129.435L160.749 120.275L167.381 116.446L175.093 120.912V128.877C175.093 129.554 174.338 130.512 174.063 130.356C173.555 130.479 173.06 130.654 172.588 130.878C171.818 131.316 171.103 131.845 170.458 132.453L146.922 116.456L150.503 114.395Z" fill="#1D1D1D"/>
<path d="M140.78 138.907V148.103C141.084 148.11 141.385 148.039 141.655 147.897L144.861 146.038L169.41 131.867V122.368L140.78 138.907Z" fill="white"/>
<path d="M97.8242 114.958V122.593C97.841 122.895 97.9285 123.19 98.0796 123.452C98.2308 123.715 98.4413 123.938 98.6944 124.104L136.708 146.042L139.914 147.902C140.182 148.043 140.482 148.114 140.785 148.108V139.626L97.8242 114.958Z" fill="#F0F0F0"/>
<path d="M169.423 131.867C169.446 131.52 169.574 131.187 169.79 130.914C170.103 130.497 170.499 130.149 170.953 129.893C171.331 129.657 171.763 129.522 172.208 129.499C172.497 129.47 172.787 129.538 173.032 129.692V120.284L169.428 122.368L169.423 131.867Z" fill="#455A64"/>
<path d="M170.862 129.948C170.446 130.199 170.082 130.527 169.79 130.914C169.574 131.187 169.446 131.52 169.423 131.867V122.707H170.857L170.862 129.948Z" fill="#F5F5F5"/>
<path d="M127.493 95.795L171.461 121.191V121.777C171.461 122.107 171.919 122.235 172.483 121.901C173.046 121.567 173.513 121.164 173.513 120.6L173.568 120.042L128.762 94.1737L128.579 94.0684C128.533 94.1528 128.508 94.247 128.506 94.3432V94.6134C128.51 94.9386 128.057 95.4653 127.493 95.795Z" fill="#FFC44A"/>
<path opacity="0.2" d="M127.493 95.795L171.461 121.191V121.777C171.461 122.107 171.919 122.235 172.483 121.901C173.046 121.567 173.513 121.164 173.513 120.6L173.568 120.042L128.762 94.1737L128.579 94.0684C128.533 94.1528 128.508 94.247 128.506 94.3432V94.6134C128.51 94.9386 128.057 95.4653 127.493 95.795Z" fill="#1D1D1D"/>
<path d="M142.09 138.151L170.834 121.567C171.2 121.374 171.535 121.219 171.672 121.292L171.484 121.191L127.516 95.795L126.999 95.5019C126.769 95.4336 126.526 95.4166 126.289 95.4522C126.051 95.4878 125.825 95.5752 125.625 95.708L97.096 112.164C96.3769 112.581 96.3769 113.263 97.096 113.675L139.484 138.151C139.888 138.355 140.334 138.461 140.787 138.461C141.24 138.461 141.686 138.355 142.09 138.151Z" fill="#FFC44A"/>
<path d="M128.583 94.0684L128.767 94.1738L173.582 120.042C173.605 119.994 173.637 119.952 173.678 119.918L173.829 119.836L174.15 119.648L174.548 119.414C174.626 119.364 174.718 119.341 174.811 119.349C174.903 119.357 174.989 119.396 175.057 119.46C175.076 119.473 175.093 119.488 175.107 119.506C175.16 119.563 175.206 119.626 175.245 119.694C175.292 119.773 175.33 119.858 175.359 119.945C175.395 120.041 175.426 120.139 175.451 120.239C175.474 120.348 175.496 120.458 175.515 120.577C175.529 120.647 175.538 120.717 175.542 120.788V120.953C175.542 121.077 175.542 121.21 175.542 121.347V120.087C175.496 119.673 175.354 119.274 175.126 118.924C174.899 118.574 174.593 118.283 174.232 118.072L131.844 93.5967C131.495 93.391 131.103 93.269 130.698 93.2404C130.294 93.2118 129.888 93.2773 129.513 93.4318L128.977 93.7432L128.753 93.8761C128.679 93.9227 128.621 93.9895 128.583 94.0684Z" fill="#FFC44A"/>
<path d="M142.09 148.85L143.862 147.824L170.458 132.467C170.482 132.12 170.609 131.788 170.825 131.514C171.139 131.098 171.535 130.751 171.988 130.493C172.366 130.261 172.796 130.127 173.238 130.104C173.537 130.098 173.83 130.193 174.067 130.374C174.409 129.691 174.576 128.934 174.553 128.171H175.561C175.561 129.545 175.103 130.956 174.539 131.281L174.031 131.578C173.742 131.743 173.518 131.752 173.518 131.578V131.308C173.518 131.006 173.06 131.02 172.487 131.345C171.915 131.67 171.466 132.183 171.466 132.485V132.755C171.466 132.911 171.077 133.259 170.596 133.539L144.875 148.392L142.09 149.999C141.687 150.208 141.238 150.313 140.785 150.306V149.143C141.238 149.158 141.687 149.057 142.09 148.85Z" fill="#FFC44A"/>
<path opacity="0.4" d="M142.09 148.85L143.862 147.824L170.458 132.467C170.482 132.12 170.609 131.788 170.825 131.514C171.139 131.098 171.535 130.751 171.988 130.493C172.366 130.261 172.796 130.127 173.238 130.104C173.537 130.098 173.83 130.193 174.067 130.374C174.409 129.691 174.576 128.934 174.553 128.171H175.561C175.561 129.545 175.103 130.956 174.539 131.281L174.031 131.578C173.742 131.743 173.518 131.752 173.518 131.578V131.308C173.518 131.006 173.06 131.02 172.487 131.345C171.915 131.67 171.466 132.183 171.466 132.485V132.755C171.466 132.911 171.077 133.259 170.596 133.539L144.875 148.392L142.09 149.999C141.687 150.208 141.238 150.313 140.785 150.306V149.143C141.238 149.158 141.687 149.057 142.09 148.85Z" fill="#1D1D1D"/>
<path d="M142.081 138.156L143.853 137.13L164.285 125.341L170.834 121.567C171.292 121.297 171.677 121.2 171.704 121.342V121.64C171.704 121.965 172.162 121.965 172.726 121.64C172.935 121.549 173.118 121.407 173.259 121.227C173.4 121.047 173.494 120.835 173.532 120.61V120.289C173.525 120.217 173.535 120.145 173.561 120.079C173.588 120.012 173.629 119.952 173.683 119.904L173.834 119.822L174.155 119.634L174.553 119.4C174.631 119.35 174.723 119.327 174.815 119.335C174.907 119.343 174.994 119.383 175.061 119.446C175.08 119.459 175.097 119.474 175.112 119.492C175.147 119.529 175.178 119.571 175.203 119.616C175.221 119.635 175.236 119.657 175.249 119.68C175.296 119.759 175.335 119.844 175.364 119.932C175.4 120.028 175.43 120.125 175.455 120.225C175.478 120.335 175.501 120.445 175.519 120.564C175.533 120.633 175.542 120.704 175.547 120.774V120.939C175.547 121.063 175.547 121.196 175.547 121.333V128.148H174.539V121.37C174.539 121.264 174.539 121.155 174.539 121.054L174.516 120.802C174.425 121.603 173.66 122.318 172.991 122.693C172.623 122.927 172.2 123.06 171.764 123.078C171.428 123.082 171.102 122.963 170.848 122.744L170.761 122.794L170.582 122.9L144.861 137.752L142.076 139.36C141.678 139.564 141.236 139.666 140.789 139.658V138.494C141.241 138.491 141.685 138.375 142.081 138.156Z" fill="#FFC44A"/>
<path opacity="0.4" d="M142.081 138.156L143.853 137.13L164.285 125.341L170.834 121.567C171.292 121.297 171.677 121.2 171.704 121.342V121.64C171.704 121.965 172.162 121.965 172.726 121.64C172.935 121.549 173.118 121.407 173.259 121.227C173.4 121.047 173.494 120.835 173.532 120.61V120.289C173.525 120.217 173.535 120.145 173.561 120.079C173.588 120.012 173.629 119.952 173.683 119.904L173.834 119.822L174.155 119.634L174.553 119.4C174.631 119.35 174.723 119.327 174.815 119.335C174.907 119.343 174.994 119.383 175.061 119.446C175.08 119.459 175.097 119.474 175.112 119.492C175.147 119.529 175.178 119.571 175.203 119.616C175.221 119.635 175.236 119.657 175.249 119.68C175.296 119.759 175.335 119.844 175.364 119.932C175.4 120.028 175.43 120.125 175.455 120.225C175.478 120.335 175.501 120.445 175.519 120.564C175.533 120.633 175.542 120.704 175.547 120.774V120.939C175.547 121.063 175.547 121.196 175.547 121.333V128.148H174.539V121.37C174.539 121.264 174.539 121.155 174.539 121.054L174.516 120.802C174.425 121.603 173.66 122.318 172.991 122.693C172.623 122.927 172.2 123.06 171.764 123.078C171.428 123.082 171.102 122.963 170.848 122.744L170.761 122.794L170.582 122.9L144.861 137.752L142.076 139.36C141.678 139.564 141.236 139.666 140.789 139.658V138.494C141.241 138.491 141.685 138.375 142.081 138.156Z" fill="#1D1D1D"/>
<path d="M96.551 112.906V114.087C96.5649 114.246 96.6199 114.398 96.7107 114.529C96.8014 114.66 96.9248 114.765 97.0685 114.834L136.676 137.697L139.456 139.305C139.858 139.513 140.305 139.618 140.757 139.612V138.448C140.303 138.458 139.853 138.351 139.452 138.137L137.684 137.116L97.096 113.675C96.9421 113.611 96.8094 113.505 96.713 113.369C96.6166 113.233 96.5605 113.072 96.551 112.906Z" fill="#FFC44A"/>
<path opacity="0.2" d="M96.551 112.906V114.087C96.5649 114.246 96.6199 114.398 96.7107 114.529C96.8014 114.66 96.9248 114.765 97.0685 114.834L136.676 137.697L139.456 139.305C139.858 139.513 140.305 139.618 140.757 139.612V138.448C140.303 138.458 139.853 138.351 139.452 138.137L137.684 137.116L97.096 113.675C96.9421 113.611 96.8094 113.505 96.713 113.369C96.6166 113.233 96.5605 113.072 96.551 112.906Z" fill="#1D1D1D"/>
<path d="M96.551 123.596V124.777C96.5649 124.936 96.6199 125.088 96.7107 125.219C96.8014 125.35 96.9248 125.455 97.0685 125.524L136.695 148.392L139.475 149.999C139.876 150.207 140.323 150.313 140.775 150.306V149.143C140.321 149.153 139.871 149.046 139.47 148.831L137.702 147.81L97.096 124.365C96.9421 124.301 96.8094 124.195 96.713 124.059C96.6166 123.923 96.5605 123.762 96.551 123.596Z" fill="#FFC44A"/>
<path opacity="0.2" d="M96.551 123.596V124.777C96.5649 124.936 96.6199 125.088 96.7107 125.219C96.8014 125.35 96.9248 125.455 97.0685 125.524L136.695 148.392L139.475 149.999C139.876 150.207 140.323 150.313 140.775 150.306V149.143C140.321 149.153 139.871 149.046 139.47 148.831L137.702 147.81L97.096 124.365C96.9421 124.301 96.8094 124.195 96.713 124.059C96.6166 123.923 96.5605 123.762 96.551 123.596Z" fill="#1D1D1D"/>
<path d="M114.843 82.0415L110.639 89.5344L116.767 92.7953L121.228 86.1543L114.843 82.0415Z" fill="#FFA8A7"/>
<path d="M129.761 65.1639C127.425 64.7654 123.889 64.6601 121.59 68.6035C119.291 72.5469 114.335 82.2794 114.335 82.2794C114.335 82.2794 117.23 86.0258 121.42 86.7082L128.268 75.8445L129.761 65.1639Z" fill="#FFC44A"/>
<path d="M124.242 156.929H119.011V165.883H124.242V156.929Z" fill="#FFA8A7"/>
<path d="M109.1 154.749L103.87 154.928L103.609 145.452L108.835 145.273L109.1 154.749Z" fill="#FFA8A7"/>
<path d="M119.011 163.3V162.553C118.512 162.768 117.349 167.206 115.274 169.098C113.625 170.605 111.376 172.341 110.804 174.017C110.209 175.762 113.937 176.728 115.476 176.454C117.266 176.137 120.372 174.878 121.15 173.706C121.929 172.533 122.295 170.816 122.927 169.959C123.559 169.103 125.02 168.127 125.364 167.152C125.552 166.607 125.327 165.416 125.066 164.404C124.823 163.488 124.558 162.462 124.242 162.549V163.117C123.862 163.538 122.813 163.955 121.626 164C120.862 164.037 119.007 163.886 119.011 163.3Z" fill="#263238"/>
<path d="M103.815 153.315C103.545 153.315 103.325 153.709 102.725 154.355C101.83 155.259 100.789 156.007 99.6471 156.567C97.6868 157.552 93.89 159.059 92.1588 159.842C91.0825 160.327 91.1328 161.628 92.2458 162.37C93.3587 163.112 96.0426 163.643 99.2715 162.919C101.026 162.526 103.316 160.904 104.767 160.991C106.219 161.078 108.926 161.06 109.993 160.323C111.06 159.585 110.634 158.033 110.332 156.659C110.002 155.184 109.531 152.926 109.041 153.027V153.485C108.413 154.437 105.212 154.827 103.829 154.126L103.815 153.315Z" fill="#263238"/>
<path d="M145.31 102.477C146.455 110.561 144.911 112.095 137.231 119.854C133.109 124.017 126.445 130.122 126.445 130.122C126.445 130.122 126.541 132.705 126.591 138.494C126.642 143.592 124.512 160.181 124.512 160.181C124.512 160.181 121.04 161.642 118.659 160.126C118.659 160.126 117.582 147.783 117.001 141.348C116.213 132.646 115.801 128.258 116.245 126.385C116.639 124.731 124.457 114.857 126.261 112.091L109.645 121.745C109.967 124.192 110.13 126.656 110.131 129.124C109.947 136.044 109.096 149.866 109.096 149.866C109.096 149.866 105.294 151.566 103.407 150.1C103.407 150.1 98.6211 119.872 98.6211 117.39C98.6211 113.62 114.99 102.367 118.091 99.7475C119.859 98.2544 121.828 96.6377 121.828 96.6377L145.31 102.477Z" fill="#455A64"/>
<path d="M126.261 112.095C124.514 110.68 123.198 108.803 122.465 106.677C122.556 108.064 122.754 109.442 123.055 110.799C123.513 112.595 109.645 121.745 109.645 121.745L126.261 112.095Z" fill="#37474F"/>
<path d="M135.496 50.7072C136.432 46.7151 133.954 42.7204 129.962 41.7848C125.97 40.8492 121.975 43.327 121.04 47.319C120.104 51.3111 122.582 55.3058 126.574 56.2414C130.566 57.177 134.561 54.6993 135.496 50.7072Z" fill="#263238"/>
<path d="M143.867 69.6616C143.867 69.6616 145.699 71.1639 145.699 75.9087V86.1542L145.438 103.384C141.774 107.373 125.286 105.862 121.205 97.16C121.205 97.16 121.237 78.9728 121.237 74.8966C121.237 70.8204 123.527 65.5305 129.756 65.1641L137.826 67.0419L143.867 69.6616Z" fill="#263238"/>
<path d="M141.101 54.291C141.101 54.291 139.896 59.9427 139.415 60.8725C139.094 61.4456 138.564 61.8724 137.936 62.0633L138.018 58.0878L141.101 54.291Z" fill="#263238"/>
<path d="M139.589 46.1937C140.007 46.1467 140.431 46.1952 140.827 46.3356C141.224 46.4761 141.584 46.7047 141.879 47.0043C142.869 48.0165 142.314 51.1859 141.082 54.2911L138.815 54.5522L139.589 46.1937Z" fill="#263238"/>
<path d="M138.156 54.552C138.614 54.8222 139.259 53.952 139.818 53.3658C140.377 52.7795 142.209 51.9918 143.12 53.9016C144.032 55.8115 142.314 58.4496 140.876 58.903C138.394 59.6816 138.018 58.0878 138.018 58.0878L137.831 67.0417C135.692 69.4324 128.377 68.8737 129.756 66.8035V64.0555C129.756 64.0555 127.507 64.399 126.413 64.2295C124.581 63.9456 123.436 62.5075 122.881 60.5289C121.993 57.355 121.654 54.7947 122.423 48.5522C123.252 41.7097 131.208 41.641 135.504 44.3432C139.8 47.0454 138.156 54.552 138.156 54.552Z" fill="#FFA8A7"/>
<path d="M131.831 56.1187H131.446C130.774 56.1187 130.13 55.8519 129.655 55.3769C129.18 54.9019 128.913 54.2577 128.913 53.586C128.913 52.9142 129.18 52.27 129.655 51.795C130.13 51.3201 130.774 51.0532 131.446 51.0532H131.835C132.507 51.0532 133.151 51.3201 133.626 51.795C134.101 52.27 134.368 52.9142 134.368 53.586C134.368 54.2577 134.101 54.9019 133.626 55.3769C133.151 55.8519 132.507 56.1187 131.835 56.1187H131.831ZM131.446 51.4792C130.887 51.4792 130.351 51.7011 129.956 52.0962C129.561 52.4913 129.339 53.0272 129.339 53.586C129.339 54.1447 129.561 54.6806 129.956 55.0757C130.351 55.4708 130.887 55.6928 131.446 55.6928H131.835C132.394 55.6928 132.93 55.4708 133.325 55.0757C133.72 54.6806 133.942 54.1447 133.942 53.586C133.942 53.0272 133.72 52.4913 133.325 52.0962C132.93 51.7011 132.394 51.4792 131.835 51.4792H131.446Z" fill="#263238"/>
<path d="M124.118 56.1187H123.729C123.057 56.1187 122.413 55.8519 121.938 55.3769C121.463 54.9019 121.196 54.2577 121.196 53.586C121.196 52.9142 121.463 52.27 121.938 51.795C122.413 51.3201 123.057 51.0532 123.729 51.0532H124.118C124.79 51.0532 125.434 51.3201 125.909 51.795C126.384 52.27 126.651 52.9142 126.651 53.586C126.651 54.2577 126.384 54.9019 125.909 55.3769C125.434 55.8519 124.79 56.1187 124.118 56.1187ZM123.729 51.4792C123.17 51.4792 122.634 51.7011 122.239 52.0962C121.844 52.4913 121.622 53.0272 121.622 53.586C121.622 54.1447 121.844 54.6806 122.239 55.0757C122.634 55.4708 123.17 55.6928 123.729 55.6928H124.118C124.677 55.6928 125.213 55.4708 125.608 55.0757C126.003 54.6806 126.225 54.1447 126.225 53.586C126.225 53.0272 126.003 52.4913 125.608 52.0962C125.213 51.7011 124.677 51.4792 124.118 51.4792H123.729Z" fill="#263238"/>
<path d="M128.941 53.0866C128.786 52.8768 128.585 52.7058 128.353 52.5873C128.121 52.4689 127.864 52.4062 127.603 52.4042C127.386 52.3824 127.167 52.4125 126.964 52.4922C126.761 52.5718 126.58 52.6986 126.435 52.8622L126.097 52.6057C126.282 52.3865 126.518 52.2162 126.785 52.11C127.052 52.0037 127.341 51.9648 127.626 51.9966C127.957 51.9999 128.281 52.0818 128.574 52.2355C128.866 52.3892 129.117 52.6103 129.307 52.8805L128.941 53.0866Z" fill="#263238"/>
<path d="M139.516 53.0684H134.13V53.4943H139.516V53.0684Z" fill="#263238"/>
<path d="M138.156 55.317C138.385 55.317 139.25 53.8789 139.818 53.366C140.601 52.6515 139.589 46.1937 139.589 46.1937C139.589 46.1937 140.345 44.5861 138.834 42.9281C137.762 41.7465 135.966 41.6137 132.902 41.1328C131.295 40.8809 128.858 40.4275 127.251 40.1298C125.336 39.7725 123.747 39.397 122.396 40.5878C121.866 41.0475 121.49 41.6602 121.322 42.3417C121.154 43.0232 121.201 43.7401 121.457 44.3937C121.845 45.209 122.535 45.8414 123.381 46.157C123.381 46.157 124.214 46.899 127.122 47.2517C130.031 47.6043 134.56 47.1875 135.179 47.1005C136.021 46.986 136.2 47.8013 136.658 50.0363C137.056 51.9828 137.4 55.3033 138.156 55.317Z" fill="#263238"/>
<path d="M139.585 46.7158L142.333 45.2365C142.245 45.0518 142.12 44.8868 141.967 44.7515C141.813 44.6161 141.634 44.5133 141.44 44.4491C141.245 44.3849 141.04 44.3607 140.836 44.378C140.632 44.3952 140.434 44.4536 140.253 44.5495C139.886 44.7566 139.612 45.0965 139.488 45.4995C139.363 45.9024 139.398 46.3377 139.585 46.7158Z" fill="#263238"/>
<path d="M129.761 64.0784C129.761 64.0784 133.837 63.2585 135.257 62.5028C136.094 62.0653 136.781 61.3854 137.226 60.5518C137.01 61.3822 136.63 62.1609 136.108 62.8418C135.064 64.1745 129.756 65.1547 129.756 65.1547L129.761 64.0784Z" fill="#F28F8F"/>
<path d="M130.741 53.5355C130.747 53.6963 130.8 53.8517 130.895 53.9824C130.989 54.113 131.119 54.213 131.269 54.2701C131.42 54.3271 131.584 54.3385 131.741 54.303C131.898 54.2675 132.041 54.1865 132.152 54.0702C132.263 53.954 132.338 53.8075 132.367 53.6491C132.395 53.4907 132.377 53.3274 132.313 53.1796C132.249 53.0317 132.144 52.9058 132.009 52.8176C131.874 52.7294 131.717 52.6828 131.556 52.6836C131.446 52.686 131.339 52.7099 131.238 52.754C131.138 52.7981 131.048 52.8615 130.972 52.9406C130.896 53.0198 130.837 53.113 130.797 53.2151C130.757 53.3171 130.738 53.426 130.741 53.5355Z" fill="#263238"/>
<path d="M132.051 50.1556L133.8 51.1174C133.918 50.8792 133.942 50.6052 133.866 50.3504C133.79 50.0956 133.621 49.8787 133.392 49.7434C133.278 49.68 133.152 49.6403 133.021 49.6268C132.891 49.6133 132.759 49.6261 132.634 49.6646C132.509 49.7031 132.393 49.7664 132.292 49.8507C132.192 49.9351 132.11 50.0388 132.051 50.1556Z" fill="#263238"/>
<path d="M130.132 59.1733L128.267 59.8741C128.308 59.9992 128.373 60.115 128.459 60.2144C128.545 60.3138 128.65 60.3948 128.768 60.4525C128.886 60.5103 129.014 60.5436 129.146 60.5504C129.277 60.5573 129.408 60.5375 129.532 60.4924C129.783 60.3929 129.986 60.1998 130.098 59.9539C130.209 59.7079 130.222 59.4281 130.132 59.1733Z" fill="#F28F8F"/>
<path d="M123.248 50.8697L124.842 49.6469C124.767 49.5401 124.672 49.4495 124.562 49.3805C124.452 49.3115 124.329 49.2656 124.201 49.2455C124.072 49.2254 123.941 49.2315 123.815 49.2635C123.689 49.2955 123.571 49.3527 123.468 49.4316C123.253 49.597 123.111 49.8388 123.07 50.1066C123.029 50.3744 123.092 50.6477 123.248 50.8697Z" fill="#263238"/>
<path d="M123.949 53.3016C123.955 53.4624 124.008 53.6178 124.102 53.7485C124.196 53.8791 124.327 53.9792 124.477 54.0362C124.628 54.0932 124.792 54.1047 124.949 54.0691C125.106 54.0336 125.249 53.9526 125.36 53.8364C125.471 53.7201 125.546 53.5736 125.575 53.4152C125.603 53.2568 125.584 53.0935 125.521 52.9457C125.457 52.7978 125.352 52.6719 125.217 52.5838C125.082 52.4956 124.925 52.4489 124.764 52.4497C124.654 52.4521 124.546 52.476 124.446 52.5201C124.346 52.5642 124.255 52.6276 124.18 52.7068C124.104 52.7859 124.045 52.8791 124.005 52.9812C123.965 53.0832 123.946 53.1921 123.949 53.3016Z" fill="#263238"/>
<path d="M127.984 52.647L127.892 57.598L124.965 56.9522L127.984 52.647Z" fill="#F28F8F"/>
<path d="M122.982 93.8073V94.2653C122.982 94.4995 122.92 94.7294 122.803 94.9321C122.685 95.1347 122.516 95.3028 122.313 95.4195L109.595 102.747C109.392 102.864 109.162 102.926 108.928 102.926C108.694 102.926 108.465 102.864 108.262 102.747L84.9269 89.2777C84.7239 89.161 84.5552 88.9929 84.4378 88.7903C84.3204 88.5877 84.2585 88.3577 84.2583 88.1235V87.7983L108.926 102.038L122.982 93.8073Z" fill="#FFC44A"/>
<path opacity="0.6" d="M122.982 93.8073V94.2653C122.982 94.4995 122.92 94.7294 122.803 94.9321C122.685 95.1347 122.516 95.3028 122.313 95.4195L109.595 102.747C109.392 102.864 109.162 102.926 108.928 102.926C108.694 102.926 108.465 102.864 108.262 102.747L84.9269 89.2777C84.7239 89.161 84.5552 88.9929 84.4378 88.7903C84.3204 88.5877 84.2585 88.3577 84.2583 88.1235V87.7983L108.926 102.038L122.982 93.8073Z" fill="#1D1D1D"/>
<path d="M84.272 87.8028L98.1082 79.8153C98.2293 79.7453 98.3668 79.7085 98.5067 79.7085C98.6465 79.7085 98.784 79.7453 98.9051 79.8153L122.904 93.6743C122.931 93.6902 122.953 93.7127 122.968 93.7395C122.983 93.7664 122.991 93.7968 122.991 93.8278C122.991 93.8587 122.983 93.8891 122.968 93.916C122.953 93.9429 122.931 93.9654 122.904 93.9812L108.94 102.042L84.272 87.8028Z" fill="#FFC44A"/>
<path opacity="0.5" d="M84.272 87.8028L98.1082 79.8153C98.2293 79.7453 98.3668 79.7085 98.5067 79.7085C98.6465 79.7085 98.784 79.7453 98.9051 79.8153L122.904 93.6743C122.931 93.6902 122.953 93.7127 122.968 93.7395C122.983 93.7664 122.991 93.7968 122.991 93.8278C122.991 93.8587 122.983 93.8891 122.968 93.916C122.953 93.9429 122.931 93.9654 122.904 93.9812L108.94 102.042L84.272 87.8028Z" fill="#1D1D1D"/>
<path d="M109.054 100.87L116.515 96.5647L94.6961 83.9697L87.194 88.252L109.054 100.87Z" fill="#263238"/>
<path d="M112.723 88.8974L112.586 88.9753L108.926 91.0867L102.423 87.3311L102.29 87.2532L106.082 85.064L112.723 88.8974Z" fill="#263238"/>
<path d="M112.586 88.9753L108.926 91.0867L102.423 87.3311L106.082 85.2197L112.586 88.9753Z" fill="#263238"/>
<path opacity="0.7" d="M108.926 102.042V102.931C108.693 102.931 108.464 102.869 108.262 102.752L84.9269 89.2826C84.7239 89.1659 84.5552 88.9978 84.4378 88.7952C84.3204 88.5925 84.2585 88.3626 84.2583 88.1284V87.8032L108.926 102.042Z" fill="#1D1D1D"/>
<path d="M108.546 102.239C108.324 102.328 108.085 102.364 107.847 102.346C107.609 102.328 107.378 102.255 107.172 102.134L83.9422 88.7238C83.7405 88.608 83.5668 88.449 83.4338 88.2581C83.3007 88.0673 83.2116 87.8494 83.1728 87.62L80.6309 72.451C80.6165 72.3663 80.6088 72.2805 80.608 72.1946C80.6052 71.7731 80.77 71.3678 81.066 71.0679L105.207 85.0094C105.36 85.0936 105.493 85.2109 105.595 85.3527C105.697 85.4945 105.767 85.6573 105.798 85.8292L108.546 102.239Z" fill="#FFC44A"/>
<path opacity="0.5" d="M108.546 102.239C108.324 102.328 108.085 102.364 107.847 102.346C107.609 102.328 107.378 102.255 107.172 102.134L83.9422 88.7238C83.7405 88.608 83.5668 88.449 83.4338 88.2581C83.3007 88.0673 83.2116 87.8494 83.1728 87.62L80.6309 72.451C80.6165 72.3663 80.6088 72.2805 80.608 72.1946C80.6052 71.7731 80.77 71.3678 81.066 71.0679L105.207 85.0094C105.36 85.0936 105.493 85.2109 105.595 85.3527C105.697 85.4945 105.767 85.6573 105.798 85.8292L108.546 102.239Z" fill="#1D1D1D"/>
<path d="M108.926 102.042L108.77 102.134C108.7 102.174 108.626 102.209 108.551 102.239L105.803 85.8288C105.774 85.6589 105.708 85.4974 105.61 85.3558C105.512 85.2141 105.384 85.0957 105.235 85.009L81.0935 71.0674C81.1894 70.973 81.2971 70.8914 81.4141 70.8247L105.606 84.7891C105.755 84.8759 105.883 84.9943 105.981 85.1359C106.079 85.2776 106.145 85.4391 106.174 85.6089L108.926 102.042Z" fill="#E0E0E0"/>
<path d="M95.4655 88.2382C95.2961 87.226 94.2472 85.8749 93.1251 85.2292C92.003 84.5834 91.229 84.8765 91.4031 85.8933C91.5771 86.91 92.6213 88.2565 93.7434 88.9069C94.8655 89.5573 95.6396 89.255 95.4655 88.2382Z" fill="#FFC44A"/>
<path d="M100.224 98.1124C100.176 97.4552 100.048 96.8062 99.844 96.1796C99.4868 95.0575 98.4242 90.734 95.9968 90.0836C95.7081 89.9969 95.4017 89.9874 95.1083 90.0561C94.435 90.2393 94.1282 90.9401 93.9953 91.5675C93.8717 92.4947 93.8717 93.4342 93.9953 94.3613C93.6222 93.9345 93.1849 93.5683 92.6992 93.2759C92.2686 92.9516 91.7493 92.7663 91.2107 92.7446C91.1358 92.7409 91.0611 92.7557 90.9932 92.7876C90.9253 92.8196 90.8663 92.8677 90.8214 92.9278C90.7344 93.0881 90.8214 93.2896 90.9588 93.4316C91.2015 93.7247 91.4992 93.972 91.742 94.2652C91.9322 94.5208 92.1081 94.7868 92.2687 95.0621C92.5755 95.5567 92.919 96.0239 93.2625 96.4956C93.9225 97.4758 94.7505 98.3317 95.7083 99.0238C96.8099 99.7694 98.0598 100.268 99.3723 100.485C101.145 100.705 102.867 100.677 103.984 100.288L100.224 98.1124Z" fill="#FFA8A7"/>
<path d="M143.381 69.7944C141.746 68.9517 139.356 72.2905 140.116 75.7805C140.876 79.2705 144.623 91.5403 144.623 91.5403C144.623 91.5403 127.7 93.0517 126.261 93.2303C125.258 93.3494 124.136 92.841 123.207 92.5341C121.943 92.1128 120.665 91.8197 119.419 91.3617C119.202 91.2621 118.966 91.212 118.727 91.2151C118.608 91.2203 118.493 91.2648 118.401 91.3418C118.309 91.4188 118.245 91.524 118.219 91.641C118.213 91.7843 118.25 91.9262 118.324 92.0486C118.724 92.8637 119.324 93.5635 120.069 94.0822C120.43 94.2954 120.773 94.5374 121.095 94.8058C121.292 95.0028 121.727 95.5478 121.553 95.8455L114.83 99.7156C114.83 99.7156 116.378 101.062 121.984 99.4911C124.005 98.9625 125.977 98.2623 127.878 97.3981C127.878 97.3981 147.819 98.2271 151.424 97.137C152.697 96.7477 153.155 95.8455 152.294 91.7418C151.309 86.9878 148.484 78.3178 147.842 76.0278C146.436 71.0677 146.102 71.1822 143.381 69.7944Z" fill="#FFA8A7"/>
<path d="M142.539 69.0845C142.539 69.0845 145.241 69.8448 146.404 71.3745C147.568 72.9042 152.056 87.7022 152.056 87.7022C150.883 88.6808 149.511 89.3925 148.035 89.7879C146.559 90.1834 145.015 90.2531 143.51 89.9922C143.51 89.9922 139.901 79.7559 139.516 77.0216C138.834 72.7851 140.904 69.4509 142.539 69.0845Z" fill="#FFC44A"/>
<path d="M127.956 79.014C127.736 77.869 128.451 77.2507 129.554 77.64C130.139 77.88 130.658 78.2536 131.072 78.7308C131.486 79.2081 131.782 79.7756 131.936 80.388C132.156 81.5467 128.171 80.1498 127.956 79.014Z" fill="#FFC44A"/>
<path d="M135.508 82.5818L132.261 80.5162C132.426 81.3955 131.24 81.2719 130.173 80.9009C129.106 80.5299 127.8 79.7788 127.631 78.8994L124.8 78.8628C124.539 78.8628 124.535 79.2017 124.8 79.4811C125.501 80.2643 127.132 81.652 130.557 82.8474C133.983 84.0428 135.298 83.6718 135.792 83.3054C135.953 83.168 135.806 82.7695 135.508 82.5818Z" fill="#FFC44A"/>
</svg>
