<svg width="28" height="28" viewBox="0 0 28 28" fill="none" xmlns="http://www.w3.org/2000/svg">
<path d="M4.66669 14.0002C4.66669 14.3096 4.7896 14.6063 5.0084 14.8251C5.22719 15.0439 5.52393 15.1668 5.83335 15.1668H14.6884L12.005 17.8385C11.8957 17.9469 11.8089 18.076 11.7496 18.2182C11.6904 18.3603 11.6599 18.5128 11.6599 18.6668C11.6599 18.8208 11.6904 18.9733 11.7496 19.1155C11.8089 19.2577 11.8957 19.3867 12.005 19.4952C12.1135 19.6045 12.2425 19.6913 12.3847 19.7505C12.5268 19.8098 12.6793 19.8403 12.8334 19.8403C12.9874 19.8403 13.1399 19.8098 13.282 19.7505C13.4242 19.6913 13.5532 19.6045 13.6617 19.4952L18.3284 14.8285C18.4346 14.7175 18.5178 14.5867 18.5734 14.4435C18.69 14.1595 18.69 13.8409 18.5734 13.5568C18.5178 13.4136 18.4346 13.2828 18.3284 13.1718L13.6617 8.50516C13.5529 8.39638 13.4238 8.3101 13.2816 8.25123C13.1395 8.19235 12.9872 8.16205 12.8334 8.16205C12.6795 8.16205 12.5272 8.19235 12.3851 8.25123C12.2429 8.3101 12.1138 8.39638 12.005 8.50516C11.8962 8.61394 11.81 8.74308 11.7511 8.8852C11.6922 9.02733 11.6619 9.17966 11.6619 9.33349C11.6619 9.48733 11.6922 9.63966 11.7511 9.78179C11.81 9.92391 11.8962 10.053 12.005 10.1618L14.6884 12.8335H5.83335C5.52393 12.8335 5.22719 12.9564 5.0084 13.1752C4.7896 13.394 4.66669 13.6907 4.66669 14.0002ZM19.8334 2.3335H8.16669C7.23843 2.3335 6.34819 2.70225 5.69181 3.35862C5.03544 4.015 4.66669 4.90524 4.66669 5.8335V9.33349C4.66669 9.64291 4.7896 9.93966 5.0084 10.1585C5.22719 10.3772 5.52393 10.5002 5.83335 10.5002C6.14277 10.5002 6.43952 10.3772 6.65831 10.1585C6.8771 9.93966 7.00002 9.64291 7.00002 9.33349V5.8335C7.00002 5.52408 7.12294 5.22733 7.34173 5.00854C7.56052 4.78975 7.85727 4.66683 8.16669 4.66683H19.8334C20.1428 4.66683 20.4395 4.78975 20.6583 5.00854C20.8771 5.22733 21 5.52408 21 5.8335V22.1668C21 22.4762 20.8771 22.773 20.6583 22.9918C20.4395 23.2106 20.1428 23.3335 19.8334 23.3335H8.16669C7.85727 23.3335 7.56052 23.2106 7.34173 22.9918C7.12294 22.773 7.00002 22.4762 7.00002 22.1668V18.6668C7.00002 18.3574 6.8771 18.0607 6.65831 17.8419C6.43952 17.6231 6.14277 17.5002 5.83335 17.5002C5.52393 17.5002 5.22719 17.6231 5.0084 17.8419C4.7896 18.0607 4.66669 18.3574 4.66669 18.6668V22.1668C4.66669 23.0951 5.03544 23.9853 5.69181 24.6417C6.34819 25.2981 7.23843 25.6668 8.16669 25.6668H19.8334C20.7616 25.6668 21.6518 25.2981 22.3082 24.6417C22.9646 23.9853 23.3333 23.0951 23.3333 22.1668V5.8335C23.3333 4.90524 22.9646 4.015 22.3082 3.35862C21.6518 2.70225 20.7616 2.3335 19.8334 2.3335Z" fill="white"/>
</svg>
