<svg width="9" height="8" viewBox="0 0 9 8" fill="none" xmlns="http://www.w3.org/2000/svg">
<path d="M0.0277824 3.01673C-0.0363137 3.24558 0.00641709 3.49524 0.198705 3.64088L1.71565 5.07643C1.75838 5.11804 1.77974 5.18045 1.77974 5.26367L1.39516 7.28176C1.35243 7.469 1.41653 7.65625 1.54472 7.78108C1.73701 7.98913 2.05749 8.07235 2.33524 7.92671L4.19403 6.96968C4.25812 6.92807 4.32222 6.92807 4.38631 6.96968L6.2451 7.92671C6.54422 8.07235 6.84333 7.98913 7.03562 7.78108C7.16381 7.63545 7.20654 7.469 7.18518 7.28176L6.82196 5.26367C6.82196 5.20126 6.84333 5.13884 6.88606 5.07643L8.403 3.64088C8.57392 3.47444 8.63802 3.22478 8.57392 3.01673C8.48846 2.78787 8.29617 2.62143 8.06116 2.60063L5.94598 2.28855C5.88189 2.28855 5.81779 2.24694 5.79643 2.18453L4.85635 0.353685C4.74953 0.12483 4.51451 0 4.27949 0C4.04447 0 3.80945 0.12483 3.70262 0.353685L2.78391 2.18453C2.76255 2.24694 2.69845 2.28855 2.63436 2.28855L0.540551 2.57982C0.305532 2.62143 0.0918785 2.78787 0.0277824 3.01673Z" fill="#FFC44A"/>
</svg>
