<svg width="64" height="64" viewBox="0 0 64 64" fill="none" xmlns="http://www.w3.org/2000/svg">
<g clip-path="url(#clip0_6551_782)">
<path d="M4.12903 13.0869H0V56H64V13.0869H59.871" fill="url(#paint0_linear_6551_782)"/>
<path d="M4.12903 52.9346H0V55.9998H64V52.9346H59.871" fill="#CF4055"/>
<path d="M31.9999 13.087V56C30.6907 54.7036 29.1361 53.6753 27.4251 52.9741C25.7141 52.2728 23.8802 51.9122 22.0283 51.913H4.12897V9H22.0283C23.8802 8.9992 25.7141 9.35974 27.4251 10.061C29.1361 10.7623 30.6907 11.7905 31.9999 13.087Z" fill="url(#paint1_linear_6551_782)"/>
<path d="M32 13.087V56C33.3092 54.7036 34.8638 53.6753 36.5748 52.9741C38.2858 52.2728 40.1197 51.9122 41.9716 51.913H59.871V9H41.9716C40.1197 8.9992 38.2858 9.35974 36.5748 10.061C34.8638 10.7623 33.3092 11.7905 32 13.087Z" fill="url(#paint2_linear_6551_782)"/>
<path d="M31.9999 52.9346V55.9998C30.6907 54.7034 29.1361 53.6752 27.4251 52.9739C25.7141 52.2726 23.8802 51.9121 22.0283 51.9129H4.12897V48.8477H22.0283C23.8802 48.8469 25.7141 49.2074 27.4251 49.9087C29.1361 50.6099 30.6907 51.6382 31.9999 52.9346Z" fill="#C7CDD8"/>
<path d="M59.871 48.8477V51.9129H41.9716C40.1197 51.9121 38.2858 52.2726 36.5748 52.9739C34.8638 53.6752 33.3092 54.7034 32 55.9998V52.9346C33.3092 51.6382 34.8638 50.6099 36.5748 49.9087C38.2858 49.2074 40.1197 48.8469 41.9716 48.8477H59.871Z" fill="#C7CDD8"/>
<path d="M27.8708 17.4087C26.0124 16.6553 24.035 16.23 22.0283 16.1519H11.3547C11.0809 16.1519 10.8184 16.0443 10.6248 15.8527C10.4312 15.661 10.3224 15.4012 10.3224 15.1302C10.3224 14.8592 10.4312 14.5993 10.6248 14.4077C10.8184 14.2161 11.0809 14.1084 11.3547 14.1084C22.7612 14.1084 24.5366 13.761 28.2941 15.4571C28.5082 15.5537 28.6826 15.7198 28.7883 15.9279C28.894 16.136 28.9248 16.3736 28.8754 16.6014C28.826 16.8291 28.6994 17.0333 28.5168 17.1801C28.3341 17.327 28.1062 17.4076 27.8708 17.4087Z" fill="#C5C7CB"/>
<path d="M27.8709 22.5178C26.221 21.8536 24.4824 21.4303 22.7096 21.2611C22.4358 21.2475 22.1787 21.1269 21.9948 20.9257C21.8109 20.7245 21.7153 20.4592 21.729 20.1882C21.7426 19.9173 21.8645 19.6628 22.0678 19.4807C22.2711 19.2987 22.5391 19.204 22.8128 19.2176C24.726 19.3059 26.6043 19.7568 28.3457 20.5458C28.5808 20.6335 28.7756 20.8031 28.8934 21.0227C29.0113 21.2423 29.0442 21.497 28.9859 21.7389C28.9277 21.9808 28.7823 22.1934 28.577 22.3368C28.3717 22.4801 28.1207 22.5445 27.8709 22.5178Z" fill="#C5C7CB"/>
<path d="M18.5805 21.2608H8.25797C7.98419 21.2608 7.72164 21.1531 7.52805 20.9615C7.33446 20.7699 7.22571 20.51 7.22571 20.239C7.22571 19.968 7.33446 19.7082 7.52805 19.5165C7.72164 19.3249 7.98419 19.2173 8.25797 19.2173H18.5805C18.8543 19.2173 19.1169 19.3249 19.3105 19.5165C19.504 19.7082 19.6128 19.968 19.6128 20.239C19.6128 20.51 19.504 20.7699 19.3105 20.9615C19.1169 21.1531 18.8543 21.2608 18.5805 21.2608Z" fill="#C5C7CB"/>
<path d="M27.8709 27.6263C26.0124 26.873 24.035 26.4476 22.0283 26.3696H8.25797C7.98419 26.3696 7.72164 26.262 7.52805 26.0703C7.33446 25.8787 7.22571 25.6188 7.22571 25.3479C7.22571 25.0769 7.33446 24.817 7.52805 24.6254C7.72164 24.4338 7.98419 24.3261 8.25797 24.3261C22.7096 24.3261 24.4335 23.9379 28.2941 25.6748C28.5083 25.7714 28.6826 25.9375 28.7884 26.1456C28.8941 26.3537 28.9248 26.5913 28.8754 26.8191C28.826 27.0468 28.6995 27.251 28.5168 27.3978C28.3341 27.5446 28.1062 27.6253 27.8709 27.6263Z" fill="#C5C7CB"/>
<path d="M27.8709 32.7351C26.0125 31.9818 24.0351 31.5564 22.0283 31.4784H18.5806C18.3068 31.4784 18.0443 31.3708 17.8507 31.1791C17.6571 30.9875 17.5483 30.7276 17.5483 30.4567C17.5483 30.1857 17.6571 29.9258 17.8507 29.7342C18.0443 29.5426 18.3068 29.4349 18.5806 29.4349C22.2864 29.4349 24.7741 29.2101 28.2941 30.7836C28.5083 30.8802 28.6827 31.0463 28.7884 31.2544C28.8941 31.4625 28.9248 31.7001 28.8755 31.9279C28.8261 32.1556 28.6995 32.3598 28.5168 32.5066C28.3341 32.6535 28.1062 32.7341 27.8709 32.7351Z" fill="#C5C7CB"/>
<path d="M14.4515 31.478H8.25797C7.98419 31.478 7.72164 31.3704 7.52805 31.1788C7.33446 30.9872 7.22571 30.7273 7.22571 30.4563C7.22571 30.1853 7.33446 29.9254 7.52805 29.7338C7.72164 29.5422 7.98419 29.4346 8.25797 29.4346H14.4515C14.7253 29.4346 14.9878 29.5422 15.1814 29.7338C15.375 29.9254 15.4838 30.1853 15.4838 30.4563C15.4838 30.7273 15.375 30.9872 15.1814 31.1788C14.9878 31.3704 14.7253 31.478 14.4515 31.478Z" fill="#C5C7CB"/>
<path d="M27.8709 37.8436C26.0124 37.0903 24.035 36.6649 22.0283 36.5869H8.25797C7.98419 36.5869 7.72164 36.4792 7.52805 36.2876C7.33446 36.096 7.22571 35.8361 7.22571 35.5651C7.22571 35.2942 7.33446 35.0343 7.52805 34.8427C7.72164 34.6511 7.98419 34.5434 8.25797 34.5434C22.7096 34.5434 24.4335 34.1551 28.2941 35.8921C28.5083 35.9887 28.6826 36.1548 28.7884 36.3629C28.8941 36.571 28.9248 36.8086 28.8754 37.0363C28.826 37.2641 28.6995 37.4683 28.5168 37.6151C28.3341 37.7619 28.1062 37.8426 27.8709 37.8436Z" fill="#C5C7CB"/>
<path d="M27.871 42.9525C26.0125 42.1991 24.0351 41.7738 22.0284 41.6957H14.4516C14.1779 41.6957 13.9153 41.5881 13.7217 41.3965C13.5281 41.2049 13.4194 40.945 13.4194 40.674C13.4194 40.403 13.5281 40.1431 13.7217 39.9515C13.9153 39.7599 14.1779 39.6522 14.4516 39.6522C21.4607 39.6522 24.4542 39.2742 28.2942 41.0009C28.5084 41.0975 28.6828 41.2636 28.7885 41.4717C28.8942 41.6798 28.9249 41.9174 28.8755 42.1452C28.8261 42.3729 28.6996 42.5771 28.5169 42.7239C28.3342 42.8708 28.1063 42.9514 27.871 42.9525Z" fill="#C5C7CB"/>
<path d="M10.3225 41.6958H8.25797C7.98419 41.6958 7.72164 41.5882 7.52805 41.3966C7.33446 41.2049 7.22571 40.9451 7.22571 40.6741C7.22571 40.4031 7.33446 40.1432 7.52805 39.9516C7.72164 39.76 7.98419 39.6523 8.25797 39.6523H10.3225C10.5963 39.6523 10.8588 39.76 11.0524 39.9516C11.246 40.1432 11.3547 40.4031 11.3547 40.6741C11.3547 40.9451 11.246 41.2049 11.0524 41.3966C10.8588 41.5882 10.5963 41.6958 10.3225 41.6958Z" fill="#C5C7CB"/>
<path d="M22.0283 46.8042H8.25797C7.98419 46.8042 7.72164 46.6966 7.52805 46.505C7.33446 46.3133 7.22571 46.0535 7.22571 45.7825C7.22571 45.5115 7.33446 45.2516 7.52805 45.06C7.72164 44.8684 7.98419 44.7607 8.25797 44.7607H22.0283C22.3021 44.7607 22.5646 44.8684 22.7582 45.06C22.9518 45.2516 23.0605 45.5115 23.0605 45.7825C23.0605 46.0535 22.9518 46.3133 22.7582 46.505C22.5646 46.6966 22.3021 46.8042 22.0283 46.8042Z" fill="#C5C7CB"/>
<path d="M55.7418 16.1524H41.9715C41.6977 16.1524 41.4351 16.0447 41.2415 15.8531C41.048 15.6615 40.9392 15.4016 40.9392 15.1306C40.9392 14.8596 41.048 14.5998 41.2415 14.4081C41.4351 14.2165 41.6977 14.1089 41.9715 14.1089H55.7418C56.0156 14.1089 56.2781 14.2165 56.4717 14.4081C56.6653 14.5998 56.774 14.8596 56.774 15.1306C56.774 15.4016 56.6653 15.6615 56.4717 15.8531C56.2781 16.0447 56.0156 16.1524 55.7418 16.1524Z" fill="#C5C7CB"/>
<path d="M35.7056 20.5661C39.6591 18.7882 41.5998 19.2174 55.7417 19.2174C56.0155 19.2174 56.278 19.325 56.4716 19.5166C56.6652 19.7082 56.7739 19.9681 56.7739 20.2391C56.7739 20.5101 56.6652 20.77 56.4716 20.9616C56.278 21.1532 56.0155 21.2608 55.7417 21.2608C41.383 21.2608 39.9791 20.8828 36.552 22.4256C36.3062 22.5176 36.0343 22.5134 35.7915 22.4138C35.5488 22.3143 35.3536 22.1268 35.2457 21.8897C35.1377 21.6526 35.1252 21.3836 35.2107 21.1377C35.2961 20.8917 35.4731 20.6873 35.7056 20.5661Z" fill="#C5C7CB"/>
<path d="M55.7419 26.3696H49.5484C49.2746 26.3696 49.012 26.262 48.8185 26.0704C48.6249 25.8788 48.5161 25.6189 48.5161 25.3479C48.5161 25.0769 48.6249 24.817 48.8185 24.6254C49.012 24.4338 49.2746 24.3262 49.5484 24.3262H55.7419C56.0157 24.3262 56.2783 24.4338 56.4718 24.6254C56.6654 24.817 56.7742 25.0769 56.7742 25.3479C56.7742 25.6189 56.6654 25.8788 56.4718 26.0704C56.2783 26.262 56.0157 26.3696 55.7419 26.3696Z" fill="#C5C7CB"/>
<path d="M35.7056 25.6747C39.2256 24.1013 41.7339 24.326 45.4191 24.326C45.6929 24.326 45.9554 24.4337 46.149 24.6253C46.3426 24.8169 46.4514 25.0768 46.4514 25.3478C46.4514 25.6188 46.3426 25.8786 46.149 26.0703C45.9554 26.2619 45.6929 26.3695 45.4191 26.3695C41.8578 26.3695 39.6385 26.1447 36.552 27.5343C36.3062 27.6263 36.0343 27.6221 35.7915 27.5225C35.5488 27.4229 35.3536 27.2355 35.2457 26.9984C35.1377 26.7612 35.1252 26.4923 35.2107 26.2464C35.2961 26.0004 35.4731 25.796 35.7056 25.6747Z" fill="#C5C7CB"/>
<path d="M35.7056 30.7833C39.6591 29.0055 41.5998 29.4346 55.7417 29.4346C56.0155 29.4346 56.278 29.5423 56.4716 29.7339C56.6652 29.9255 56.7739 30.1854 56.7739 30.4564C56.7739 30.7274 56.6652 30.9873 56.4716 31.1789C56.278 31.3705 56.0155 31.4781 55.7417 31.4781C41.383 31.4781 39.9791 31.1001 36.552 32.6429C36.3062 32.7349 36.0343 32.7307 35.7915 32.6311C35.5488 32.5315 35.3536 32.3441 35.2457 32.107C35.1377 31.8698 35.1252 31.6009 35.2107 31.355C35.2961 31.109 35.4731 30.9046 35.7056 30.7833Z" fill="#C5C7CB"/>
<path d="M55.7418 36.5869H54.7096C54.4358 36.5869 54.1732 36.4793 53.9796 36.2877C53.7861 36.0961 53.6773 35.8362 53.6773 35.5652C53.6773 35.2942 53.7861 35.0343 53.9796 34.8427C54.1732 34.6511 54.4358 34.5435 54.7096 34.5435H55.7418C56.0156 34.5435 56.2782 34.6511 56.4717 34.8427C56.6653 35.0343 56.7741 35.2942 56.7741 35.5652C56.7741 35.8362 56.6653 36.0961 56.4717 36.2877C56.2782 36.4793 56.0156 36.5869 55.7418 36.5869Z" fill="#C5C7CB"/>
<path d="M35.7056 35.8923C39.6075 34.1349 42.3223 34.5436 50.5804 34.5436C50.8542 34.5436 51.1167 34.6513 51.3103 34.8429C51.5039 35.0345 51.6127 35.2944 51.6127 35.5654C51.6127 35.8364 51.5039 36.0962 51.3103 36.2878C51.1167 36.4795 50.8542 36.5871 50.5804 36.5871C41.703 36.5871 39.8243 36.2806 36.552 37.7519C36.3062 37.8439 36.0343 37.8397 35.7915 37.7401C35.5488 37.6405 35.3536 37.4531 35.2457 37.2159C35.1377 36.9788 35.1252 36.7099 35.2107 36.4639C35.2961 36.218 35.4731 36.0136 35.7056 35.8923Z" fill="#C5C7CB"/>
<path d="M55.742 41.6958H47.4839C47.2101 41.6958 46.9476 41.5882 46.754 41.3966C46.5604 41.2049 46.4517 40.9451 46.4517 40.6741C46.4517 40.4031 46.5604 40.1432 46.754 39.9516C46.9476 39.76 47.2101 39.6523 47.4839 39.6523H55.742C56.0158 39.6523 56.2783 39.76 56.4719 39.9516C56.6655 40.1432 56.7742 40.4031 56.7742 40.6741C56.7742 40.9451 56.6655 41.2049 56.4719 41.3966C56.2783 41.5882 56.0158 41.6958 55.742 41.6958Z" fill="#C5C7CB"/>
<path d="M36.1292 42.9524C35.8939 42.9513 35.666 42.8707 35.4833 42.7238C35.3006 42.577 35.1741 42.3728 35.1247 42.1451C35.0753 41.9173 35.106 41.6797 35.2117 41.4716C35.3174 41.2635 35.4918 41.0974 35.706 41.0008C38.111 39.9556 40.7333 39.4933 43.355 39.6521C43.6288 39.6521 43.8913 39.7598 44.0849 39.9514C44.2785 40.143 44.3873 40.4029 44.3873 40.6739C44.3873 40.9449 44.2785 41.2047 44.0849 41.3964C43.8913 41.588 43.6288 41.6956 43.355 41.6956C37.3782 41.6956 37.0686 42.9524 36.1292 42.9524Z" fill="#C5C7CB"/>
<path d="M35.7056 46.1098C39.6798 44.3217 42.2191 44.7611 52.6449 44.7611C52.9187 44.7611 53.1812 44.8687 53.3748 45.0603C53.5684 45.252 53.6772 45.5118 53.6772 45.7828C53.6772 46.0538 53.5684 46.3137 53.3748 46.5053C53.1812 46.6969 52.9187 46.8046 52.6449 46.8046C41.5688 46.8046 39.8965 46.4674 36.552 47.9693C36.3062 48.0614 36.0343 48.0571 35.7915 47.9576C35.5488 47.858 35.3536 47.6705 35.2457 47.4334C35.1377 47.1963 35.1252 46.9273 35.2107 46.6814C35.2961 46.4355 35.4731 46.231 35.7056 46.1098Z" fill="#C5C7CB"/>
</g>
<defs>
<linearGradient id="paint0_linear_6551_782" x1="32" y1="56" x2="32" y2="13.0869" gradientUnits="userSpaceOnUse">
<stop stop-color="#DA5466"/>
<stop offset="1" stop-color="#F4929C"/>
</linearGradient>
<linearGradient id="paint1_linear_6551_782" x1="4.12897" y1="32.5" x2="31.9999" y2="32.5" gradientUnits="userSpaceOnUse">
<stop stop-color="#D4D8E1"/>
<stop offset="1" stop-color="#F3F4F5"/>
</linearGradient>
<linearGradient id="paint2_linear_6551_782" x1="32" y1="-0.195651" x2="59.871" y2="-0.195651" gradientUnits="userSpaceOnUse">
<stop stop-color="#D4D8E1"/>
<stop offset="1" stop-color="#F3F4F5"/>
</linearGradient>
<clipPath id="clip0_6551_782">
<rect width="64" height="64" fill="white" transform="translate(0.000732422)"/>
</clipPath>
</defs>
</svg>
