<svg width="64" height="64" viewBox="0 0 64 64" fill="none" xmlns="http://www.w3.org/2000/svg">
<path d="M32.0106 38.0838C35.3997 38.0838 38.1471 35.4062 38.1471 32.1032C38.1471 28.8002 35.3997 26.1226 32.0106 26.1226C28.6215 26.1226 25.8741 28.8002 25.8741 32.1032C25.8741 35.4062 28.6215 38.0838 32.0106 38.0838Z" fill="url(#paint0_linear_6551_1200)"/>
<path d="M32.0111 64C27.7156 64 24.003 57.7802 22.0802 47.3539C16.7722 18.6569 27.8076 -10.987 37.5237 4.04428C37.6675 4.26899 37.7137 4.54015 37.6524 4.79811C37.591 5.05608 37.427 5.27971 37.1964 5.41982C36.9659 5.55994 36.6876 5.60504 36.4229 5.54523C36.1583 5.48541 35.9288 5.32556 35.785 5.10086C27.9201 -7.10957 19.5234 22.2752 24.0848 46.9951C25.7519 56.0258 28.9429 62.0065 32.0111 62.0065C39.8658 62.0065 44.6625 29.5118 38.1476 10.314C38.075 10.066 38.1038 9.80018 38.228 9.57247C38.3523 9.34476 38.5622 9.17283 38.8138 9.09283C39.0654 9.01282 39.3389 9.03096 39.5771 9.14343C39.8152 9.25591 39.9993 9.45395 40.0908 9.69597C46.5852 28.8639 42.6068 64 32.0111 64Z" fill="#C8CACE"/>
<path d="M32.0111 64C27.7156 64 24.003 57.7802 22.0802 47.3539C16.7722 18.6569 27.8076 -10.987 37.5237 4.04428C37.6675 4.26899 37.7137 4.54015 37.6524 4.79811C37.591 5.05608 37.427 5.27971 37.1964 5.41982C36.9659 5.55994 36.6876 5.60504 36.4229 5.54523C36.1583 5.48541 35.9288 5.32556 35.785 5.10086C27.9201 -7.10957 19.5234 22.2752 24.0848 46.9951C25.7519 56.0258 28.9429 62.0065 32.0111 62.0065C39.8658 62.0065 44.6625 29.5118 38.1476 10.314C38.075 10.066 38.1038 9.80018 38.228 9.57247C38.3523 9.34476 38.5622 9.17283 38.8138 9.09283C39.0654 9.01282 39.3389 9.03096 39.5771 9.14343C39.8152 9.25591 39.9993 9.45395 40.0908 9.69597C46.5852 28.8639 42.6068 64 32.0111 64Z" fill="#C8CACE"/>
<path d="M38.1472 10.1745C39.8418 10.1745 41.2155 8.83566 41.2155 7.18416C41.2155 5.53266 39.8418 4.19385 38.1472 4.19385C36.4527 4.19385 35.079 5.53266 35.079 7.18416C35.079 8.83566 36.4527 10.1745 38.1472 10.1745Z" fill="url(#paint1_linear_6551_1200)"/>
<path d="M32.0111 64C27.7156 64 24.003 57.7802 22.0802 47.3539C16.7722 18.6569 27.8076 -10.987 37.5237 4.04428C37.6675 4.26899 37.7137 4.54015 37.6524 4.79811C37.591 5.05608 37.427 5.27971 37.1964 5.41982C36.9659 5.55994 36.6876 5.60504 36.4229 5.54523C36.1583 5.48541 35.9288 5.32556 35.785 5.10086C27.9201 -7.10957 19.5234 22.2752 24.0848 46.9951C25.7519 56.0258 28.9429 62.0065 32.0111 62.0065C39.8658 62.0065 44.6625 29.5118 38.1476 10.314C38.075 10.066 38.1038 9.80018 38.228 9.57247C38.3523 9.34476 38.5622 9.17283 38.8138 9.09283C39.0654 9.01282 39.3389 9.03096 39.5771 9.14343C39.8152 9.25591 39.9993 9.45395 40.0908 9.69597C46.5852 28.8639 42.6068 64 32.0111 64Z" fill="#C8CACE"/>
<path d="M32.0111 64C27.7156 64 24.003 57.7802 22.0802 47.3539C16.7722 18.6569 27.8076 -10.987 37.5237 4.04428C37.6675 4.26899 37.7137 4.54015 37.6524 4.79811C37.591 5.05608 37.427 5.27971 37.1964 5.41982C36.9659 5.55994 36.6876 5.60504 36.4229 5.54523C36.1583 5.48541 35.9288 5.32556 35.785 5.10086C27.9201 -7.10957 19.5234 22.2752 24.0848 46.9951C25.7519 56.0258 28.9429 62.0065 32.0111 62.0065C39.8658 62.0065 44.6625 29.5118 38.1476 10.314C38.075 10.066 38.1038 9.80018 38.228 9.57247C38.3523 9.34476 38.5622 9.17283 38.8138 9.09283C39.0654 9.01282 39.3389 9.03096 39.5771 9.14343C39.8152 9.25591 39.9993 9.45395 40.0908 9.69597C46.5852 28.8639 42.6068 64 32.0111 64Z" fill="#C8CACE"/>
<path d="M38.1472 10.1745C39.8418 10.1745 41.2155 8.83566 41.2155 7.18416C41.2155 5.53266 39.8418 4.19385 38.1472 4.19385C36.4527 4.19385 35.079 5.53266 35.079 7.18416C35.079 8.83566 36.4527 10.1745 38.1472 10.1745Z" fill="url(#paint2_linear_6551_1200)"/>
<path d="M54.1537 50.793C53.8825 50.793 53.6224 50.688 53.4305 50.501C53.2387 50.3141 53.131 50.0606 53.131 49.7962C53.131 49.5318 53.2387 49.2783 53.4305 49.0914C53.6224 48.9045 53.8825 48.7994 54.1537 48.7994C64.0335 48.4207 56.8538 39.1208 49.2548 32.8511C33.2999 19.7037 8.76426 11.5103 5.41988 17.152C1.32889 24.0596 28.7794 44.304 48.2832 48.2113C48.5544 48.2642 48.793 48.4199 48.9465 48.6443C49.0999 48.8686 49.1556 49.1431 49.1014 49.4075C49.0471 49.6718 48.8873 49.9044 48.6572 50.0539C48.427 50.2034 48.1453 50.2578 47.8741 50.2049C36.7466 47.9721 22.5407 40.3867 13.4791 32.901C-9.0213 14.2913 7.34264 5.62933 37.6364 22.6442C42.1949 25.1813 46.5141 28.1066 50.5434 31.3859C58.8277 38.2237 62.4994 44.4635 60.3618 48.0917C59.1857 50.0454 56.3526 50.793 54.1537 50.793Z" fill="#C8CACE"/>
<path d="M54.1537 50.793C53.8825 50.793 53.6224 50.688 53.4305 50.501C53.2387 50.3141 53.131 50.0606 53.131 49.7962C53.131 49.5318 53.2387 49.2783 53.4305 49.0914C53.6224 48.9045 53.8825 48.7994 54.1537 48.7994C64.0335 48.4207 56.8538 39.1208 49.2548 32.8511C33.2999 19.7037 8.76426 11.5103 5.41988 17.152C1.32889 24.0596 28.7794 44.304 48.2832 48.2113C48.5544 48.2642 48.793 48.4199 48.9465 48.6443C49.0999 48.8686 49.1556 49.1431 49.1014 49.4075C49.0471 49.6718 48.8873 49.9044 48.6572 50.0539C48.427 50.2034 48.1453 50.2578 47.8741 50.2049C36.7466 47.9721 22.5407 40.3867 13.4791 32.901C-9.0213 14.2913 7.34264 5.62933 37.6364 22.6442C42.1949 25.1813 46.5141 28.1066 50.5434 31.3859C58.8277 38.2237 62.4994 44.4635 60.3618 48.0917C59.1857 50.0454 56.3526 50.793 54.1537 50.793Z" fill="#C8CACE"/>
<path d="M51.0855 52.7365C52.7801 52.7365 54.1538 51.3977 54.1538 49.7462C54.1538 48.0947 52.7801 46.7559 51.0855 46.7559C49.391 46.7559 48.0173 48.0947 48.0173 49.7462C48.0173 51.3977 49.391 52.7365 51.0855 52.7365Z" fill="url(#paint3_linear_6551_1200)"/>
<path d="M54.1537 50.793C53.8825 50.793 53.6224 50.688 53.4305 50.501C53.2387 50.3141 53.131 50.0606 53.131 49.7962C53.131 49.5318 53.2387 49.2783 53.4305 49.0914C53.6224 48.9045 53.8825 48.7994 54.1537 48.7994C64.0335 48.4207 56.8538 39.1208 49.2548 32.8511C33.2999 19.7037 8.76426 11.5103 5.41988 17.152C1.32889 24.0596 28.7794 44.304 48.2832 48.2113C48.5544 48.2642 48.793 48.4199 48.9465 48.6443C49.0999 48.8686 49.1556 49.1431 49.1014 49.4075C49.0471 49.6718 48.8873 49.9044 48.6572 50.0539C48.427 50.2034 48.1453 50.2578 47.8741 50.2049C36.7466 47.9721 22.5407 40.3867 13.4791 32.901C-9.0213 14.2913 7.34264 5.62933 37.6364 22.6442C42.1949 25.1813 46.5141 28.1066 50.5434 31.3859C58.8277 38.2237 62.4994 44.4635 60.3618 48.0917C59.1857 50.0454 56.3526 50.793 54.1537 50.793Z" fill="#C8CACE"/>
<path d="M54.1537 50.793C53.8825 50.793 53.6224 50.688 53.4305 50.501C53.2387 50.3141 53.131 50.0606 53.131 49.7962C53.131 49.5318 53.2387 49.2783 53.4305 49.0914C53.6224 48.9045 53.8825 48.7994 54.1537 48.7994C64.0335 48.4207 56.8538 39.1208 49.2548 32.8511C33.2999 19.7037 8.76426 11.5103 5.41988 17.152C1.32889 24.0596 28.7794 44.304 48.2832 48.2113C48.5544 48.2642 48.793 48.4199 48.9465 48.6443C49.0999 48.8686 49.1556 49.1431 49.1014 49.4075C49.0471 49.6718 48.8873 49.9044 48.6572 50.0539C48.427 50.2034 48.1453 50.2578 47.8741 50.2049C36.7466 47.9721 22.5407 40.3867 13.4791 32.901C-9.0213 14.2913 7.34264 5.62933 37.6364 22.6442C42.1949 25.1813 46.5141 28.1066 50.5434 31.3859C58.8277 38.2237 62.4994 44.4635 60.3618 48.0917C59.1857 50.0454 56.3526 50.793 54.1537 50.793Z" fill="#C8CACE"/>
<path d="M51.0855 52.7365C52.7801 52.7365 54.1538 51.3977 54.1538 49.7462C54.1538 48.0947 52.7801 46.7559 51.0855 46.7559C49.391 46.7559 48.0173 48.0947 48.0173 49.7462C48.0173 51.3977 49.391 52.7365 51.0855 52.7365Z" fill="url(#paint4_linear_6551_1200)"/>
<path d="M10.5328 50.793C3.63948 50.793 1.32807 47.0052 4.26335 41.4831C4.38813 41.2479 4.60369 41.0705 4.86263 40.9901C5.12156 40.9098 5.40265 40.9329 5.64406 41.0545C5.88547 41.1761 6.06743 41.3862 6.1499 41.6386C6.23238 41.8909 6.20862 42.1649 6.08384 42.4002C-0.84015 55.3582 29.9138 47.2644 49.1721 31.346C56.3518 25.4551 60.1155 19.7536 58.6019 17.152C57.0882 14.5504 50.1131 14.8794 41.3072 17.9693C30.5888 21.6973 17.0886 29.5817 9.51004 37.7851C9.3283 37.9821 9.07373 38.1006 8.80233 38.1146C8.53093 38.1286 8.26494 38.037 8.06286 37.8599C7.86077 37.6828 7.73917 37.4347 7.72478 37.1702C7.7104 36.9056 7.80441 36.6464 7.98615 36.4495C12.9669 31.1068 19.9625 26.2226 26.3854 22.6043C57.0677 5.37016 72.8078 14.4906 50.5426 32.8611C40.8879 40.8352 22.3966 50.793 10.5328 50.793Z" fill="#C8CACE"/>
<path d="M10.5328 50.793C3.63948 50.793 1.32807 47.0052 4.26335 41.4831C4.38813 41.2479 4.60369 41.0705 4.86263 40.9901C5.12156 40.9098 5.40265 40.9329 5.64406 41.0545C5.88547 41.1761 6.06743 41.3862 6.1499 41.6386C6.23238 41.8909 6.20862 42.1649 6.08384 42.4002C-0.84015 55.3582 29.9138 47.2644 49.1721 31.346C56.3518 25.4551 60.1155 19.7536 58.6019 17.152C57.0882 14.5504 50.1131 14.8794 41.3072 17.9693C30.5888 21.6973 17.0886 29.5817 9.51004 37.7851C9.3283 37.9821 9.07373 38.1006 8.80233 38.1146C8.53093 38.1286 8.26494 38.037 8.06286 37.8599C7.86077 37.6828 7.73917 37.4347 7.72478 37.1702C7.7104 36.9056 7.80441 36.6464 7.98615 36.4495C12.9669 31.1068 19.9625 26.2226 26.3854 22.6043C57.0677 5.37016 72.8078 14.4906 50.5426 32.8611C40.8879 40.8352 22.3966 50.793 10.5328 50.793Z" fill="#C8CACE"/>
<path d="M6.80072 42.3703C8.49526 42.3703 9.86896 41.0315 9.86896 39.38C9.86896 37.7285 8.49526 36.3896 6.80072 36.3896C5.10618 36.3896 3.73248 37.7285 3.73248 39.38C3.73248 41.0315 5.10618 42.3703 6.80072 42.3703Z" fill="url(#paint5_linear_6551_1200)"/>
<path d="M10.5328 50.793C3.63948 50.793 1.32807 47.0052 4.26335 41.4831C4.38813 41.2479 4.60369 41.0705 4.86263 40.9901C5.12156 40.9098 5.40265 40.9329 5.64406 41.0545C5.88547 41.1761 6.06743 41.3862 6.1499 41.6386C6.23238 41.8909 6.20862 42.1649 6.08384 42.4002C-0.84015 55.3582 29.9138 47.2644 49.1721 31.346C56.3518 25.4551 60.1155 19.7536 58.6019 17.152C57.0882 14.5504 50.1131 14.8794 41.3072 17.9693C30.5888 21.6973 17.0886 29.5817 9.51004 37.7851C9.3283 37.9821 9.07373 38.1006 8.80233 38.1146C8.53093 38.1286 8.26494 38.037 8.06286 37.8599C7.86077 37.6828 7.73917 37.4347 7.72478 37.1702C7.7104 36.9056 7.80441 36.6464 7.98615 36.4495C12.9669 31.1068 19.9625 26.2226 26.3854 22.6043C57.0677 5.37016 72.8078 14.4906 50.5426 32.8611C40.8879 40.8352 22.3966 50.793 10.5328 50.793Z" fill="#C8CACE"/>
<path d="M10.5328 50.793C3.63948 50.793 1.32807 47.0052 4.26335 41.4831C4.38813 41.2479 4.60369 41.0705 4.86263 40.9901C5.12156 40.9098 5.40265 40.9329 5.64406 41.0545C5.88547 41.1761 6.06743 41.3862 6.1499 41.6386C6.23238 41.8909 6.20862 42.1649 6.08384 42.4002C-0.84015 55.3582 29.9138 47.2644 49.1721 31.346C56.3518 25.4551 60.1155 19.7536 58.6019 17.152C57.0882 14.5504 50.1131 14.8794 41.3072 17.9693C30.5888 21.6973 17.0886 29.5817 9.51004 37.7851C9.3283 37.9821 9.07373 38.1006 8.80233 38.1146C8.53093 38.1286 8.26494 38.037 8.06286 37.8599C7.86077 37.6828 7.73917 37.4347 7.72478 37.1702C7.7104 36.9056 7.80441 36.6464 7.98615 36.4495C12.9669 31.1068 19.9625 26.2226 26.3854 22.6043C57.0677 5.37016 72.8078 14.4906 50.5426 32.8611C40.8879 40.8352 22.3966 50.793 10.5328 50.793Z" fill="#C8CACE"/>
<path d="M6.80072 42.3703C8.49526 42.3703 9.86896 41.0315 9.86896 39.38C9.86896 37.7285 8.49526 36.3896 6.80072 36.3896C5.10618 36.3896 3.73248 37.7285 3.73248 39.38C3.73248 41.0315 5.10618 42.3703 6.80072 42.3703Z" fill="url(#paint6_linear_6551_1200)"/>
<path d="M32.0114 38.0838C31.1195 38.083 30.2385 37.8926 29.4298 37.5261C28.6211 37.1595 27.9041 36.6255 27.3288 35.9614C26.7534 35.2972 26.3335 34.5188 26.0983 33.6803C25.8631 32.8419 25.8183 31.9635 25.9669 31.1064C27.092 37.725 36.9308 37.715 38.0558 31.1064C38.2044 31.9635 38.1596 32.8419 37.9244 33.6803C37.6892 34.5188 37.2693 35.2972 36.694 35.9614C36.1186 36.6255 35.4016 37.1595 34.5929 37.5261C33.7842 37.8926 32.9032 38.083 32.0114 38.0838Z" fill="#CF4055"/>
<path d="M38.1478 10.1746C37.6576 10.1732 37.175 10.0575 36.7402 9.837C36.3054 9.61651 35.9311 9.29772 35.6487 8.9073C35.3663 8.51689 35.1839 8.06622 35.1169 7.59302C35.0499 7.11982 35.1002 6.63786 35.2636 6.1875C35.4786 6.76478 35.8707 7.26355 36.3868 7.61603C36.9028 7.96851 37.5176 8.15759 38.1478 8.15759C38.7779 8.15759 39.3927 7.96851 39.9088 7.61603C40.4248 7.26355 40.8169 6.76478 41.0319 6.1875C41.1953 6.63786 41.2456 7.11982 41.1786 7.59302C41.1116 8.06622 40.9293 8.51689 40.6468 8.9073C40.3644 9.29772 39.9902 9.61651 39.5554 9.837C39.1206 10.0575 38.6379 10.1732 38.1478 10.1746Z" fill="#7ECE67"/>
<path d="M53.7448 51.2412C53.3598 51.8836 52.7429 52.3631 52.0145 52.586C51.2862 52.8088 50.4988 52.7591 49.806 52.4464C49.1133 52.1338 48.5651 51.5807 48.2684 50.8952C47.9717 50.2097 47.9478 49.441 48.2015 48.7393C48.4165 49.3165 48.8087 49.8153 49.3247 50.1678C49.8407 50.5203 50.4555 50.7094 51.0857 50.7094C51.7158 50.7094 52.3307 50.5203 52.8467 50.1678C53.3627 49.8153 53.7548 49.3165 53.9698 48.7393C54.1207 49.1472 54.1787 49.5823 54.1399 50.0143C54.101 50.4464 53.9662 50.865 53.7448 51.2412Z" fill="#5B8DC9"/>
<path d="M8.33424 41.9712C7.791 42.2742 7.16566 42.4081 6.54212 42.3548C5.91858 42.3015 5.32667 42.0637 4.84582 41.6732C4.36497 41.2826 4.01817 40.7581 3.85197 40.17C3.68576 39.5818 3.7081 38.9582 3.91598 38.3828C4.13096 38.9601 4.52311 39.4589 5.03912 39.8113C5.55513 40.1638 6.16999 40.3529 6.80012 40.3529C7.43025 40.3529 8.04511 40.1638 8.56112 39.8113C9.07713 39.4589 9.46928 38.9601 9.68426 38.3828C9.92436 39.0405 9.92081 39.7593 9.67424 40.4146C9.42768 41.07 8.95363 41.6207 8.33424 41.9712Z" fill="#F6B756"/>
<defs>
<linearGradient id="paint0_linear_6551_1200" x1="32.0106" y1="38.0838" x2="32.0106" y2="26.1226" gradientUnits="userSpaceOnUse">
<stop stop-color="#DA5466"/>
<stop offset="1" stop-color="#F4929C"/>
</linearGradient>
<linearGradient id="paint1_linear_6551_1200" x1="38.1472" y1="10.1745" x2="38.1472" y2="4.19385" gradientUnits="userSpaceOnUse">
<stop stop-color="#DA5466"/>
<stop offset="1" stop-color="#F4929C"/>
</linearGradient>
<linearGradient id="paint2_linear_6551_1200" x1="38.1472" y1="10.1745" x2="38.1472" y2="4.19385" gradientUnits="userSpaceOnUse">
<stop stop-color="#8CDD79"/>
<stop offset="1" stop-color="#D4E6B6"/>
</linearGradient>
<linearGradient id="paint3_linear_6551_1200" x1="51.0855" y1="52.7365" x2="51.0855" y2="46.7559" gradientUnits="userSpaceOnUse">
<stop stop-color="#DA5466"/>
<stop offset="1" stop-color="#F4929C"/>
</linearGradient>
<linearGradient id="paint4_linear_6551_1200" x1="51.0855" y1="52.7365" x2="51.0855" y2="46.7559" gradientUnits="userSpaceOnUse">
<stop stop-color="#7AA8D7"/>
<stop offset="1" stop-color="#C3D2E7"/>
</linearGradient>
<linearGradient id="paint5_linear_6551_1200" x1="6.80072" y1="42.3703" x2="6.80072" y2="36.3896" gradientUnits="userSpaceOnUse">
<stop stop-color="#DA5466"/>
<stop offset="1" stop-color="#F4929C"/>
</linearGradient>
<linearGradient id="paint6_linear_6551_1200" x1="6.80072" y1="42.3703" x2="6.80072" y2="36.3896" gradientUnits="userSpaceOnUse">
<stop stop-color="#FBCC88"/>
<stop offset="1" stop-color="#FFE5C3"/>
</linearGradient>
</defs>
</svg>
