<svg width="50" height="62" viewBox="0 0 50 62" fill="none" xmlns="http://www.w3.org/2000/svg">
<path d="M37.5039 61.0039V62.0039H13.5039C13.4304 61.3319 13.4916 60.652 13.6839 60.0039C13.8902 59.4204 14.2719 58.9149 14.7768 58.5568C15.2817 58.1988 15.8849 58.0056 16.5039 58.0039H34.5039C35.2995 58.0039 36.0626 58.32 36.6252 58.8826C37.1878 59.4452 37.5039 60.2083 37.5039 61.0039Z" fill="url(#paint0_linear_6551_1147)"/>
<path d="M27.5038 48.354V58.004H23.5038V48.924" fill="url(#paint1_linear_6551_1147)"/>
<path d="M1.70386 40.8041C6.95514 46.0554 14.0774 49.0055 21.5039 49.0055C28.9303 49.0055 36.0526 46.0554 41.3039 40.8041C46.5551 35.5528 49.5053 28.4305 49.5053 21.0041C49.5053 13.5777 46.5551 6.45539 41.3039 1.2041L38.5039 4.0041C43.0125 8.51278 45.5455 14.6279 45.5455 21.0041C45.5455 27.3803 43.0125 33.4954 38.5039 38.0041C33.9952 42.5128 27.8801 45.0457 21.5039 45.0457C15.1276 45.0457 9.01254 42.5128 4.50386 38.0041L1.70386 40.8041Z" fill="url(#paint2_linear_6551_1147)"/>
<path d="M1.50386 42.0042C1.30524 42.0054 1.11077 41.9474 0.945249 41.8376C0.77973 41.7278 0.650659 41.5712 0.574492 41.3877C0.498325 41.2043 0.478513 41.0023 0.517583 40.8075C0.556653 40.6128 0.652833 40.4341 0.793863 40.2942L6.65386 34.4342C6.84217 34.2459 7.09756 34.1401 7.36386 34.1401C7.63016 34.1401 7.88556 34.2459 8.07386 34.4342C8.26217 34.6225 8.36795 34.8779 8.36795 35.1442C8.36795 35.4105 8.26217 35.6659 8.07386 35.8542C1.78386 42.1342 2.08386 42.0042 1.50386 42.0042Z" fill="#8288A1"/>
<path d="M35.6439 7.86409C35.4453 7.86525 35.2508 7.80723 35.0853 7.69742C34.9197 7.58762 34.7907 7.43102 34.7145 7.24757C34.6383 7.06413 34.6185 6.86216 34.6576 6.66741C34.6967 6.47266 34.7928 6.29396 34.9339 6.15409L40.7939 0.294092C40.9822 0.105788 41.2376 -6.87313e-09 41.5039 0C41.7702 6.87313e-09 42.0256 0.105788 42.2139 0.294092C42.4022 0.482395 42.508 0.73779 42.508 1.00409C42.508 1.27039 42.4022 1.52579 42.2139 1.71409C35.9239 8.00409 36.2239 7.86409 35.6439 7.86409Z" fill="#8288A1"/>
<path d="M37.5039 62.0039H13.5039C13.4304 61.3319 13.4916 60.652 13.6839 60.0039H37.3239C37.5135 60.6525 37.5746 61.3319 37.5039 62.0039Z" fill="#8A6762"/>
<path d="M40.0639 13.5443C41.6384 17.4695 41.9282 21.7928 40.8914 25.893C39.8547 29.9932 37.5449 33.6592 34.2939 36.3643C19.5039 48.7443 -2.87613 34.7243 2.19387 15.8243C7.16387 -2.74571 32.9539 -4.16571 40.0639 13.5443Z" fill="url(#paint3_linear_6551_1147)"/>
<path d="M16.3339 40.3139C11.8335 39.1086 7.8952 36.3699 5.19866 32.5706C2.50211 28.7714 1.21654 24.1499 1.56385 19.5039C1.95367 24.5252 4.22355 29.2145 7.92005 32.6351C11.6165 36.0558 16.4675 37.9559 21.5039 37.9559C26.5402 37.9559 31.3912 36.0558 35.0877 32.6351C38.7841 29.2145 41.054 24.5252 41.4439 19.5039C41.6815 22.6877 41.1534 25.8822 39.9039 28.8201C38.6543 31.7581 36.7196 34.3543 34.2613 36.3915C31.8031 38.4288 28.8929 39.8479 25.774 40.5303C22.6551 41.2127 19.4182 41.1385 16.3339 40.3139Z" fill="#77CACB"/>
<path d="M15.3039 21.2842C16.0139 22.5142 17.2339 21.8042 19.1639 22.2842C21.0939 22.7642 25.4039 26.0642 24.8939 28.0042C24.3839 29.9442 20.9639 31.0842 18.5039 32.5042C16.0439 33.9242 15.0139 37.7742 15.0139 37.7742L13.6039 35.3342C12.8939 34.1042 16.1239 29.7842 16.3839 28.8142C16.6439 27.8442 14.2639 25.1442 15.4839 24.4442C16.7039 23.7442 16.0139 22.5142 15.3039 21.2842Z" fill="url(#paint4_linear_6551_1147)"/>
<path d="M22.5039 13.8842C21.6304 14.031 20.8073 14.3931 20.1089 14.9378C19.4105 15.4826 18.8589 16.1928 18.5039 17.0042C18.2439 18.0042 15.5939 16.2242 14.3739 16.9342C13.1539 17.6442 14.5739 20.0942 15.2739 21.3142C14.5739 20.0942 11.9239 18.3142 10.2739 16.8642C8.62389 15.4142 9.64389 11.5142 9.89389 10.5542C10.0939 9.78422 8.64389 7.92422 7.67389 6.55422C9.15888 5.15283 10.844 3.98001 12.6739 3.07422C22.0739 5.92422 18.9139 6.00422 20.0339 7.93422C20.7439 9.15422 19.8939 8.02422 21.8239 8.53422C23.7539 9.04422 24.6539 13.4342 22.5039 13.8842Z" fill="url(#paint5_linear_6551_1147)"/>
<path d="M34.2938 36.3639C33.4238 34.8039 34.6038 30.3639 35.0738 28.6539C35.5838 26.7239 29.7938 25.1739 30.3138 23.2339C30.8338 21.2939 33.3138 19.8839 33.3138 19.8839C34.5338 19.1839 37.1838 20.8839 39.1138 21.4439C41.0438 22.0039 37.6938 18.9939 35.3138 16.2839C32.9338 13.5739 37.3938 15.7739 40.1038 13.5439C41.6739 17.4732 41.9573 21.7992 40.9133 25.8997C39.8693 30.0002 37.5517 33.6639 34.2938 36.3639Z" fill="url(#paint6_linear_6551_1147)"/>
<path d="M34.8638 6.12404C34.5864 6.63114 34.4614 7.20758 34.5038 7.78404C34.6938 10.934 29.8538 9.64404 27.4038 11.054C24.9538 12.464 25.7338 9.57404 26.7638 5.70404C27.7938 1.83404 23.6838 1.77404 23.6838 1.77404C23.7538 1.52404 23.8038 1.32404 23.8738 1.14404C27.9637 1.62864 31.8031 3.36838 34.8638 6.12404Z" fill="url(#paint7_linear_6551_1147)"/>
<path d="M27.5038 55.0039H23.5038V58.0039H27.5038V55.0039Z" fill="#8288A1"/>
<path d="M34.2939 36.3639C33.9605 35.47 33.8741 34.5028 34.0439 33.5639C36.1787 31.8559 37.9378 29.7255 39.2112 27.3062C40.4845 24.8868 41.2446 22.2306 41.4439 19.5039C41.6917 22.6816 41.1715 25.8723 39.9271 28.8067C38.6826 31.7412 36.7505 34.3331 34.2939 36.3639Z" fill="#4DA67F"/>
<defs>
<linearGradient id="paint0_linear_6551_1147" x1="25.5039" y1="62.0039" x2="25.5039" y2="58.0039" gradientUnits="userSpaceOnUse">
<stop stop-color="#9B756D"/>
<stop offset="1" stop-color="#BC9388"/>
</linearGradient>
<linearGradient id="paint1_linear_6551_1147" x1="25.5038" y1="58.004" x2="25.5038" y2="48.354" gradientUnits="userSpaceOnUse">
<stop stop-color="#949AAF"/>
<stop offset="1" stop-color="#C6CCDA"/>
</linearGradient>
<linearGradient id="paint2_linear_6551_1147" x1="25.6039" y1="49.0041" x2="25.6039" y2="1.2041" gradientUnits="userSpaceOnUse">
<stop stop-color="#949AAF"/>
<stop offset="1" stop-color="#C6CCDA"/>
</linearGradient>
<linearGradient id="paint3_linear_6551_1147" x1="21.4839" y1="41.0443" x2="21.4839" y2="1.04429" gradientUnits="userSpaceOnUse">
<stop stop-color="#9DD5DF"/>
<stop offset="1" stop-color="#C3E1F5"/>
</linearGradient>
<linearGradient id="paint4_linear_6551_1147" x1="19.2239" y1="37.7742" x2="19.2239" y2="21.2842" gradientUnits="userSpaceOnUse">
<stop stop-color="#6AB891"/>
<stop offset="1" stop-color="#85CBA9"/>
</linearGradient>
<linearGradient id="paint5_linear_6551_1147" x1="15.7139" y1="21.2842" x2="15.7139" y2="3.06422" gradientUnits="userSpaceOnUse">
<stop stop-color="#6AB891"/>
<stop offset="1" stop-color="#85CBA9"/>
</linearGradient>
<linearGradient id="paint6_linear_6551_1147" x1="35.8938" y1="36.3639" x2="35.8938" y2="13.5439" gradientUnits="userSpaceOnUse">
<stop stop-color="#6AB891"/>
<stop offset="1" stop-color="#85CBA9"/>
</linearGradient>
<linearGradient id="paint7_linear_6551_1147" x1="29.2538" y1="11.424" x2="29.2538" y2="1.14404" gradientUnits="userSpaceOnUse">
<stop stop-color="#6AB891"/>
<stop offset="1" stop-color="#85CBA9"/>
</linearGradient>
</defs>
</svg>
