<svg width="13" height="12" viewBox="0 0 13 12" fill="none" xmlns="http://www.w3.org/2000/svg">
<path d="M0.144213 4.52509C0.0480685 4.86838 0.112165 5.24287 0.400597 5.46132L2.67601 7.61464C2.7401 7.67705 2.77215 7.77068 2.77215 7.89551L2.19529 10.9226C2.13119 11.2035 2.22733 11.4844 2.41962 11.6716C2.70806 11.9837 3.18878 12.1085 3.6054 11.8901L6.39358 10.4545C6.48972 10.3921 6.58587 10.3921 6.68201 10.4545L9.47019 11.8901C9.91886 12.1085 10.3675 11.9837 10.656 11.6716C10.8483 11.4532 10.9124 11.2035 10.8803 10.9226L10.3355 7.89551C10.3355 7.80188 10.3675 7.70826 10.4316 7.61464L12.707 5.46132C12.9634 5.21166 13.0596 4.83717 12.9634 4.52509C12.8352 4.18181 12.5468 3.93215 12.1943 3.90094L9.02152 3.43283C8.92537 3.43283 8.82923 3.37041 8.79718 3.27679L7.38707 0.530528C7.22683 0.187245 6.8743 0 6.52177 0C6.16924 0 5.81671 0.187245 5.65647 0.530528L4.27841 3.27679C4.24636 3.37041 4.15022 3.43283 4.05407 3.43283L0.913365 3.86973C0.560837 3.93215 0.240357 4.18181 0.144213 4.52509Z" fill="white"/>
</svg>
